# 3ds Max Wavefront OBJ Exporter v0.97b - (c)2007 guruware
# File Created: 17.02.2017 15:38:44

mtllib DoorMechMang.mtl

#
# object Cylinder001
#

v  65.7206 36.1566 110.0000
v  -70.4112 3.4743 110.0000
v  -70.0000 0.0000 110.0000
v  70.0000 0.0000 110.0000
v  65.7206 36.1566 -90.0000
v  70.0000 0.0000 -90.0000
v  -70.4112 3.4743 -90.0000
v  -70.0000 0.0000 -90.0000
v  -3.5216 0.0000 -26.5078
v  -3.5106 0.0000 -26.4426
v  -7.5959 0.0000 -27.9906
v  8.9034 0.0000 -30.8999
v  11.1664 0.0000 -34.8195
v  11.9524 0.0000 -39.2768
v  12.6103 0.0000 68.7397
v  5.4363 0.0000 -27.9906
v  1.1832 0.0000 -26.4426
v  -11.0630 0.0000 -30.8999
v  -13.3260 0.0000 -34.8196
v  -3.5295 0.0000 -52.1109
v  -3.4726 0.0000 -52.0637
v  -7.5958 0.0000 -50.5630
v  -14.1119 0.0000 -39.2768
v  -13.3260 0.0000 -43.7341
v  -11.0630 0.0000 -47.6537
v  -3.3428 0.0000 -52.1109
v  1.1832 0.0000 -52.1109
v  5.4363 0.0000 -50.5630
v  8.9034 0.0000 -47.6537
v  11.1664 0.0000 -43.7341
v  13.4205 0.0000 73.3342
v  12.6103 0.0000 77.9287
v  10.2776 0.0000 81.9690
v  6.7038 0.0000 84.9679
v  2.3197 0.0000 86.5635
v  -2.3456 0.0000 86.5635
v  -6.7297 0.0000 84.9679
v  -10.3036 0.0000 81.9690
v  -12.6362 0.0000 77.9287
v  -13.4464 0.0000 73.3342
v  -12.6362 0.0000 68.7397
v  -10.3036 0.0000 64.6994
v  -6.7297 0.0000 61.7005
v  -2.3456 0.0000 60.1049
v  2.3197 0.0000 60.1049
v  6.7038 0.0000 61.7005
v  10.2776 0.0000 64.6994
v  -14.1119 16.9905 -39.2766
v  -13.3260 17.1792 -43.7340
v  -11.0630 17.7225 -47.6537
v  -7.5959 18.5549 -50.5629
v  -3.3428 19.5760 -52.1109
v  1.1832 20.6626 -52.1109
v  5.4363 21.6837 -50.5629
v  8.9034 22.5160 -47.6537
v  11.1664 23.0593 -43.7340
v  11.9524 23.2480 -39.2768
v  11.1664 23.0593 -34.8195
v  8.9034 22.5160 -30.8999
v  -1.0740 20.1207 60.1049
v  2.3197 20.9354 60.1049
v  6.7038 21.9879 61.7005
v  10.2776 22.8460 64.6994
v  12.6103 23.4060 68.7397
v  13.4205 23.6005 73.3342
v  12.6103 23.4060 77.9287
v  10.2776 22.8460 81.9690
v  6.7037 21.9879 84.9679
v  2.1574 20.8965 86.5635
v  -1.0740 20.1207 86.5635
v  -2.3456 19.8154 86.5635
v  -6.7297 18.7629 84.9679
v  -10.3036 17.9049 81.9690
v  -12.6362 17.3448 77.9287
v  -13.4464 17.1503 73.3342
v  -12.6362 17.3448 68.7397
v  -10.3036 17.9049 64.6994
v  -6.7297 18.7629 61.7005
v  -2.3456 19.8154 60.1049
v  -13.3260 17.1792 -34.8195
v  -11.0630 17.7225 -30.8999
v  5.4363 21.6837 -27.9906
v  1.1832 20.6626 -26.4426
v  -3.3428 19.5760 -26.4427
v  -7.5959 18.5549 -27.9906
v  13.4205 5.5998 73.3342
v  13.4205 12.8602 73.3342
v  12.6103 12.8602 68.7397
v  12.6103 5.5998 68.7397
v  10.2776 12.8602 64.6994
v  10.2776 5.5998 64.6994
v  6.7038 12.8602 61.7005
v  6.7038 5.5998 61.7005
v  2.3197 12.8602 60.1049
v  2.3197 5.5998 60.1049
v  -2.3456 12.8602 60.1049
v  -2.3456 5.5998 60.1049
v  -6.7297 12.8602 61.7005
v  -6.7297 5.5998 61.7005
v  -10.3036 12.8602 64.6994
v  -10.3036 5.5998 64.6994
v  -12.6362 12.8602 68.7397
v  -12.6362 5.5998 68.7397
v  -13.4464 12.8602 73.3342
v  -13.4464 5.5998 73.3342
v  -12.6362 12.8602 77.9287
v  -12.6362 5.5998 77.9287
v  -10.3036 12.8602 81.9690
v  -10.3036 5.5998 81.9690
v  -6.7297 12.8602 84.9679
v  -6.7297 5.5998 84.9679
v  -2.3456 12.8602 86.5635
v  -2.3456 5.5998 86.5635
v  2.3197 12.8602 86.5635
v  2.3197 5.5998 86.5635
v  6.7038 12.8602 84.9679
v  6.7038 5.5998 84.9679
v  10.2776 12.8602 81.9690
v  10.2776 5.5998 81.9690
v  12.6103 12.8602 77.9287
v  12.6103 5.5998 77.9287
v  13.4205 20.1207 73.3342
v  12.6103 20.1207 68.7397
v  10.2776 20.1207 64.6994
v  6.7038 20.1207 61.7005
v  2.3197 20.1207 60.1049
v  2.3197 20.1207 86.5635
v  6.7038 20.1207 84.9679
v  10.2776 20.1207 81.9690
v  12.6103 20.1207 77.9287
v  8.9034 2.4630 -47.6537
v  11.1664 0.0000 -43.7340
v  11.1664 2.4630 -43.7340
v  1.1832 2.4630 -52.1109
v  5.4363 2.4630 -50.5630
v  -7.5959 2.4630 -50.5630
v  -7.5959 0.0000 -50.5630
v  -3.3428 2.4630 -52.1109
v  -13.3260 2.4630 -43.7340
v  -13.3260 0.0000 -43.7340
v  -11.0630 2.4630 -47.6537
v  -13.3260 2.4630 -34.8195
v  -13.3260 0.0000 -34.8195
v  -14.1119 2.4630 -39.2768
v  -7.5959 2.4630 -27.9906
v  -11.0630 2.4630 -30.8999
v  1.1832 2.4630 -26.4426
v  -3.3428 0.0000 -26.4426
v  -3.3428 2.4630 -26.4426
v  8.9034 2.4630 -30.8999
v  5.4363 2.4630 -27.9906
v  11.1664 2.4630 -34.8195
v  11.9524 2.4630 -39.2768
v  11.9523 0.0000 -39.2768
v  11.9524 9.7235 -39.2768
v  11.1664 9.7235 -43.7340
v  8.9034 9.7235 -47.6537
v  5.4363 9.7235 -50.5630
v  1.1832 9.7235 -52.1109
v  -3.3428 9.7235 -52.1109
v  -7.5959 9.7235 -50.5630
v  -11.0630 9.7235 -47.6537
v  -13.3260 9.7235 -43.7340
v  -14.1119 9.7235 -39.2768
v  -13.3260 9.7235 -34.8195
v  -11.0630 9.7235 -30.8999
v  -7.5959 9.7235 -27.9906
v  -3.3428 9.7235 -26.4426
v  1.1832 9.7235 -26.4426
v  5.4363 9.7235 -27.9906
v  8.9034 9.7235 -30.8999
v  11.1664 9.7235 -34.8195
v  11.9524 16.9839 -39.2768
v  11.1664 16.9839 -43.7340
v  8.9034 16.9839 -47.6537
v  5.4363 16.9839 -50.5629
v  1.1832 16.9839 -52.1109
v  -3.3428 16.9839 -52.1109
v  -7.5959 16.9839 -50.5629
v  -11.0630 16.9839 -47.6537
v  -13.3260 16.9839 -43.7340
v  -14.1119 16.9839 -39.2768
v  -13.3260 16.9839 -34.8195
v  -11.0630 16.9839 -30.8999
v  -7.5959 16.9839 -27.9906
v  -3.3428 16.9839 -26.4426
v  1.1832 16.9839 -26.4426
v  5.4363 16.9839 -27.9906
v  8.9034 16.9839 -30.8999
v  11.1664 16.9839 -34.8195
v  2.3197 20.9354 86.5635
v  6.7038 21.9879 84.9679
# 192 vertices

vn 0.0000 -0.0000 1.0000
vn 0.9931 0.1175 0.0000
vn 0.9931 0.1175 -0.0000
vn 0.0000 0.0000 -1.0000
vn -0.9931 -0.1175 0.0000
vn -0.0000 -1.0000 -0.0000
vn -0.0000 -1.0000 0.0000
vn 0.0000 -1.0000 0.0000
vn 0.0000 -1.0000 -0.0000
vn -0.2334 0.9724 0.0000
vn -0.2334 0.9724 -0.0000
vn -0.2335 0.9724 -0.0000
vn 0.2334 -0.9724 -0.0000
vn -0.2335 0.9724 0.0000
vn -1.0000 0.0000 -0.0000
vn -0.9397 -0.0000 0.3420
vn -0.7660 -0.0000 0.6428
vn -0.5000 -0.0000 0.8660
vn -0.1736 -0.0000 0.9848
vn 0.1736 -0.0000 0.9848
vn 0.5000 -0.0000 0.8660
vn 0.7660 -0.0000 0.6428
vn 0.9397 -0.0000 0.3420
vn 1.0000 0.0000 -0.0000
vn 1.0000 -0.0000 0.0000
vn 0.9397 0.0000 -0.3420
vn 0.7660 0.0000 -0.6428
vn 0.5000 0.0000 -0.8660
vn 0.1736 0.0000 -0.9848
vn -0.1736 0.0000 -0.9848
vn -0.5000 0.0000 -0.8660
vn -0.7660 0.0000 -0.6428
vn -0.9397 0.0000 -0.3420
vn -0.7660 0.0000 0.6428
vn -0.1736 0.0000 0.9848
vn -0.9428 0.0000 -0.3333
vn 0.7660 0.0000 0.6428
vn 0.9397 0.0000 0.3420
vn 1.0000 0.0017 0.0012
vn 0.9397 -0.0000 -0.3420
vn 0.7660 -0.0000 -0.6428
vn 0.1736 -0.0000 -0.9848
vn -0.1736 -0.0000 -0.9848
vn -1.0000 -0.0000 -0.0000
vn 0.1484 -0.0000 0.9889
vn 0.4805 -0.0000 0.8770
vn 0.7553 -0.0000 0.6554
vn 0.9366 -0.0000 0.3503
vn 0.9366 0.0000 -0.3503
vn 0.7553 0.0000 -0.6554
vn 0.4805 0.0000 -0.8770
vn 0.1484 -0.0000 -0.9889
vn 0.0000 -0.0000 -1.0000
vn -0.1990 0.0000 -0.9800
vn -0.9428 0.0000 0.3333
vn -0.7770 0.0000 0.6295
vn -0.5197 -0.0000 0.8543
vn -0.1990 0.0000 0.9800
vn -0.5197 0.0000 -0.8543
vn -0.7770 0.0000 -0.6295
vn -0.9428 -0.0000 0.3333
vn -0.1990 -0.0000 0.9800
vn 0.7553 0.0000 0.6554
vn 0.9366 0.0000 0.3503
vn 1.0000 0.0033 -0.0024
vn 0.9366 -0.0000 -0.3503
vn 0.7553 -0.0000 -0.6554
# 67 vertex normals

vt 1.0000 1.0000 0.0000
vt 0.0000 1.0000 0.0000
vt 0.0000 0.0000 0.0000
vt 1.0000 0.0000 0.0000
vt 0.5252 0.6825 0.0000
vt 0.5251 0.6822 0.0000
vt 0.5543 0.6900 0.0000
vt 0.4364 0.7045 0.0000
vt 0.4202 0.7241 0.0000
vt 0.4146 0.7464 0.0000
vt 0.4099 0.2063 0.0000
vt 0.4612 0.6900 0.0000
vt 0.4915 0.6822 0.0000
vt 0.5790 0.7045 0.0000
vt 0.5952 0.7241 0.0000
vt 0.5252 0.8106 0.0000
vt 0.5248 0.8103 0.0000
vt 0.5543 0.8028 0.0000
vt 0.6008 0.7464 0.0000
vt 0.5952 0.7687 0.0000
vt 0.5790 0.7883 0.0000
vt 0.5239 0.8106 0.0000
vt 0.4915 0.8106 0.0000
vt 0.4612 0.8028 0.0000
vt 0.4364 0.7883 0.0000
vt 0.4202 0.7687 0.0000
vt 0.4041 0.1833 0.0000
vt 0.4099 0.1604 0.0000
vt 0.4266 0.1402 0.0000
vt 0.4521 0.1252 0.0000
vt 0.4834 0.1172 0.0000
vt 0.5168 0.1172 0.0000
vt 0.5481 0.1252 0.0000
vt 0.5736 0.1402 0.0000
vt 0.5903 0.1604 0.0000
vt 0.5960 0.1833 0.0000
vt 0.5903 0.2063 0.0000
vt 0.5736 0.2265 0.0000
vt 0.5481 0.2415 0.0000
vt 0.5168 0.2495 0.0000
vt 0.4834 0.2495 0.0000
vt 0.4521 0.2415 0.0000
vt 0.4266 0.2265 0.0000
vt 0.4136 0.7464 0.0000
vt 0.4193 0.7687 0.0000
vt 0.4360 0.7883 0.0000
vt 0.4614 0.8028 0.0000
vt 0.4927 0.8106 0.0000
vt 0.5259 0.8106 0.0000
vt 0.5572 0.8028 0.0000
vt 0.5826 0.7883 0.0000
vt 0.5993 0.7687 0.0000
vt 0.6050 0.7464 0.0000
vt 0.5993 0.7241 0.0000
vt 0.5826 0.7045 0.0000
vt 0.5093 0.2495 0.0000
vt 0.5343 0.2495 0.0000
vt 0.5665 0.2415 0.0000
vt 0.5927 0.2265 0.0000
vt 0.6099 0.2063 0.0000
vt 0.6158 0.1833 0.0000
vt 0.6099 0.1604 0.0000
vt 0.5927 0.1402 0.0000
vt 0.5665 0.1252 0.0000
vt 0.5331 0.1172 0.0000
vt 0.5093 0.1172 0.0000
vt 0.5000 0.1172 0.0000
vt 0.4678 0.1252 0.0000
vt 0.4415 0.1402 0.0000
vt 0.4244 0.1604 0.0000
vt 0.4185 0.1833 0.0000
vt 0.4244 0.2063 0.0000
vt 0.4415 0.2265 0.0000
vt 0.4678 0.2415 0.0000
vt 0.5000 0.2495 0.0000
vt 0.4193 0.7241 0.0000
vt 0.4360 0.7045 0.0000
vt 0.5572 0.6900 0.0000
vt 0.5259 0.6822 0.0000
vt 0.4927 0.6822 0.0000
vt 0.4614 0.6900 0.0000
vt 0.7500 0.4000 1.0000
vt 0.7500 0.6000 1.0000
vt 0.6944 0.6000 1.0000
vt 0.6944 0.4000 1.0000
vt 0.6389 0.6000 1.0000
vt 0.6389 0.4000 1.0000
vt 0.5833 0.6000 1.0000
vt 0.5833 0.4000 1.0000
vt 0.5278 0.6000 1.0000
vt 0.5278 0.4000 1.0000
vt 0.4722 0.6000 1.0000
vt 0.4722 0.4000 1.0000
vt 0.4167 0.6000 1.0000
vt 0.4167 0.4000 1.0000
vt 0.3611 0.6000 1.0000
vt 0.3611 0.4000 1.0000
vt 0.3056 0.6000 1.0000
vt 0.3056 0.4000 1.0000
vt 0.2500 0.6000 1.0000
vt 0.2500 0.4000 1.0000
vt 0.1944 0.6000 1.0000
vt 0.1944 0.4000 1.0000
vt 0.1389 0.6000 1.0000
vt 0.1389 0.4000 1.0000
vt 0.0833 0.6000 1.0000
vt 0.0833 0.4000 1.0000
vt 0.0278 0.6000 1.0000
vt 0.0278 0.4000 1.0000
vt -0.0278 0.6000 1.0000
vt -0.0278 0.4000 1.0000
vt 0.9722 0.4000 1.0000
vt 0.9722 0.6000 1.0000
vt 0.9167 0.6000 1.0000
vt 0.9167 0.4000 1.0000
vt 0.8611 0.6000 1.0000
vt 0.8611 0.4000 1.0000
vt 0.8056 0.6000 1.0000
vt 0.8056 0.4000 1.0000
vt 0.7500 0.8000 1.0000
vt 0.6944 0.8000 1.0000
vt 0.6389 0.8000 1.0000
vt 0.5833 0.8000 1.0000
vt 0.5278 0.8000 1.0000
vt 0.9722 0.8000 1.0000
vt 0.9167 0.8000 1.0000
vt 0.8611 0.8000 1.0000
vt 0.8056 0.8000 1.0000
vt 0.8056 0.8905 1.0000
vt 0.7500 0.8959 1.0000
vt 0.6389 0.3322 1.0000
vt 0.6944 0.3322 1.0000
vt 0.5278 0.3322 1.0000
vt 0.5833 0.3322 1.0000
vt 0.4167 0.3322 1.0000
vt 0.4722 0.3322 1.0000
vt 0.3056 0.3322 1.0000
vt 0.3611 0.3322 1.0000
vt 0.1944 0.3322 1.0000
vt 0.2500 0.3322 1.0000
vt 0.0833 0.3322 1.0000
vt 0.1389 0.3322 1.0000
vt -0.0278 0.3322 1.0000
vt 0.0278 0.3322 1.0000
vt 0.8611 0.3322 1.0000
vt 0.9167 0.3322 1.0000
vt 0.7500 0.3322 1.0000
vt 0.8056 0.3322 1.0000
vt 0.4722 0.8000 1.0000
vt 0.4167 0.8000 1.0000
vt 0.3611 0.8000 1.0000
vt 0.3056 0.8000 1.0000
vt 0.2500 0.8000 1.0000
vt 0.1944 0.8000 1.0000
vt 0.1389 0.8000 1.0000
vt 0.0833 0.8000 1.0000
vt 0.0278 0.8000 1.0000
vt -0.0278 0.8000 1.0000
vt 0.7500 0.2457 1.0000
vt 0.8056 0.2457 1.0000
vt 0.6944 0.2457 1.0000
vt 0.6389 0.2457 1.0000
vt 0.5833 0.2457 1.0000
vt 0.5278 0.2457 1.0000
vt 0.4722 0.2457 1.0000
vt 0.4167 0.2457 1.0000
vt 0.3611 0.2457 1.0000
vt 0.3056 0.2457 1.0000
vt 0.2500 0.2457 1.0000
vt 0.1944 0.2457 1.0000
vt 0.1389 0.2457 1.0000
vt 0.0833 0.2457 1.0000
vt 0.0278 0.2457 1.0000
vt -0.0278 0.2457 1.0000
vt 0.9167 0.2457 1.0000
vt 0.9722 0.2457 1.0000
vt 0.8611 0.2457 1.0000
vt 0.9722 0.3322 1.0000
vt 0.4722 0.7916 1.0000
vt 0.4167 0.7626 1.0000
vt 0.4874 0.8000 1.0000
vt 0.3611 0.7390 1.0000
vt 0.3056 0.7235 1.0000
vt 0.2500 0.7182 1.0000
vt 0.1944 0.7235 1.0000
vt 0.1389 0.7390 1.0000
vt 0.0833 0.7626 1.0000
vt 0.0278 0.7916 1.0000
vt 0.0126 0.8000 1.0000
vt -0.0278 0.8224 1.0000
vt 0.6944 0.8905 1.0000
vt 0.6389 0.8751 1.0000
vt 0.5833 0.8514 1.0000
vt 0.5278 0.8224 1.0000
vt 0.9722 0.8224 1.0000
vt 0.9167 0.8514 1.0000
vt 0.8611 0.8751 1.0000
vt 0.6944 0.9674 1.0000
vt 0.6389 0.9524 1.0000
vt 0.7500 0.9726 1.0000
vt 0.5833 0.9295 1.0000
vt 0.5278 0.9013 1.0000
vt 0.4722 0.8714 1.0000
vt 0.4167 0.8433 1.0000
vt 0.3611 0.8203 1.0000
vt 0.3056 0.8054 1.0000
vt 0.2500 0.8002 1.0000
vt 0.1944 0.8054 1.0000
vt 0.1389 0.8203 1.0000
vt 0.0833 0.8433 1.0000
vt 0.0278 0.8714 1.0000
vt 0.9722 0.9013 1.0000
vt 0.9167 0.9295 1.0000
vt -0.0278 0.9013 1.0000
vt 0.8611 0.9524 1.0000
vt 0.8056 0.9674 1.0000
# 216 texture coords

g Cylinder001
usemtl wire_177027088
s 8
f 1/1/1 2/2/1 3/3/1 4/4/1 
s 16
f 5/1/2 1/2/2 4/3/2 6/4/3 
s 32
f 7/1/4 5/2/4 6/3/4 8/4/4 
s 64
f 2/1/5 7/2/5 8/3/5 3/4/5 
s 2
f 9/5/6 10/6/6 11/7/6 
f 12/8/7 13/9/7 14/10/8 15/11/9 
f 16/12/9 12/8/7 15/11/9 17/13/9 
f 10/6/6 17/13/9 15/11/9 11/7/6 
f 18/14/9 11/7/6 15/11/9 19/15/9 
f 20/16/7 21/17/6 22/18/7 8/1/7 
f 23/19/9 19/15/9 15/11/9 8/1/7 
f 24/20/8 23/19/9 8/1/7 25/21/7 
f 22/18/7 25/21/7 8/1/7 
f 26/22/9 20/16/7 8/1/7 27/23/7 
f 28/24/7 27/23/7 8/1/7 6/2/8 
f 29/25/8 28/24/7 6/2/8 30/26/6 
f 14/10/8 30/26/6 6/2/8 15/11/9 
f 15/11/9 6/2/8 4/3/7 31/27/7 
f 32/28/7 31/27/7 4/3/7 33/29/9 
f 34/30/9 33/29/9 4/3/7 35/31/9 
f 36/32/8 35/31/9 4/3/7 3/4/9 
f 37/33/8 36/32/8 3/4/9 38/34/6 
f 39/35/8 38/34/6 3/4/9 40/36/6 
f 41/37/8 40/36/6 3/4/9 42/38/6 
f 43/39/9 42/38/6 3/4/9 8/1/7 
f 44/40/7 43/39/9 8/1/7 45/41/9 
f 46/42/7 45/41/9 8/1/7 47/43/9 
f 15/11/9 47/43/9 8/1/7 
s 4
f 48/44/10 49/45/10 50/46/10 7/2/10 
f 7/2/10 50/46/10 51/47/11 52/48/11 
f 7/2/10 52/48/11 53/49/11 5/1/10 
f 5/1/10 53/49/11 54/50/11 55/51/10 
f 5/1/10 55/51/10 56/52/11 57/53/11 
f 57/53/11 58/54/12 59/55/10 60/56/10 
f 5/1/10 57/53/11 60/56/10 61/57/10 
f 5/1/10 61/57/10 62/58/11 63/59/11 
f 5/1/10 63/59/11 64/60/11 1/4/10 
f 1/4/10 64/60/11 65/61/11 66/62/10 
f 1/4/10 66/62/10 67/63/10 68/64/11 
f 68/64/11 69/65/13 70/66/11 1/4/10 
f 1/4/10 70/66/11 71/67/11 2/3/10 
f 2/3/10 71/67/11 72/68/11 73/69/10 
f 2/3/10 73/69/10 74/70/10 75/71/10 
f 2/3/10 75/71/10 76/72/10 77/73/11 
f 2/3/10 77/73/11 78/74/11 7/2/10 
f 7/2/10 78/74/11 79/75/11 48/44/10 
f 80/76/14 48/44/10 79/75/11 81/77/11 
f 60/56/10 59/55/10 82/78/10 83/79/10 
f 60/56/10 83/79/10 84/80/11 85/81/11 
f 60/56/10 85/81/11 81/77/11 79/75/11 
s 8
f 86/82/15 87/83/15 88/84/16 89/85/16 
f 89/85/16 88/84/16 90/86/17 91/87/17 
f 91/87/17 90/86/17 92/88/18 93/89/18 
f 93/89/18 92/88/18 94/90/19 95/91/19 
f 95/91/19 94/90/19 96/92/20 97/93/20 
f 97/93/20 96/92/20 98/94/21 99/95/21 
f 99/95/21 98/94/21 100/96/22 101/97/22 
f 101/97/22 100/96/22 102/98/23 103/99/23 
f 103/99/23 102/98/23 104/100/24 105/101/25 
f 105/101/25 104/100/24 106/102/26 107/103/26 
f 107/103/26 106/102/26 108/104/27 109/105/27 
f 109/105/27 108/104/27 110/106/28 111/107/28 
f 111/107/28 110/106/28 112/108/29 113/109/29 
f 113/109/29 112/108/29 114/110/30 115/111/30 
f 115/112/30 114/113/30 116/114/31 117/115/31 
f 117/115/31 116/114/31 118/116/32 119/117/32 
f 119/117/32 118/116/32 120/118/33 121/119/33 
f 121/119/33 120/118/33 87/83/15 86/82/15 
f 87/83/15 122/120/15 123/121/16 88/84/16 
f 88/84/16 123/121/16 124/122/34 90/86/17 
f 90/86/17 124/122/34 125/123/18 92/88/18 
f 92/88/18 125/123/18 126/124/35 94/90/19 
f 114/113/30 127/125/30 128/126/31 116/114/31 
f 116/114/31 128/126/31 129/127/32 118/116/32 
f 118/116/32 129/127/32 130/128/33 120/118/33 
f 120/118/33 130/128/33 122/120/15 87/83/15 
f 130/128/33 66/129/36 65/130/15 122/120/15 
f 131/87/17 29/131/17 132/132/16 133/85/16 
f 134/91/19 27/133/19 28/134/18 135/89/18 
f 136/95/21 137/135/21 26/136/20 138/93/20 
f 139/99/23 140/137/23 25/138/22 141/97/22 
f 142/103/26 143/139/26 23/140/25 144/101/25 
f 145/107/28 11/141/28 18/142/27 146/105/27 
f 147/111/30 17/143/30 148/144/29 149/109/29 
f 150/117/32 12/145/32 16/146/31 151/115/31 
f 152/119/33 153/82/15 154/147/15 13/148/33 
f 153/82/15 155/83/15 156/84/16 133/85/16 
f 133/85/16 156/84/16 157/86/17 131/87/17 
f 131/87/17 157/86/17 158/88/18 135/89/18 
f 135/89/18 158/88/18 159/90/19 134/91/19 
f 134/91/19 159/90/19 160/92/20 138/93/20 
f 138/93/20 160/92/20 161/94/21 136/95/21 
f 136/95/21 161/94/21 162/96/22 141/97/22 
f 141/97/22 162/96/22 163/98/23 139/99/23 
f 139/99/23 163/98/23 164/100/25 144/101/25 
f 144/101/25 164/100/25 165/102/26 142/103/26 
f 142/103/26 165/102/26 166/104/27 146/105/27 
f 146/105/27 166/104/27 167/106/28 145/107/28 
f 145/107/28 167/106/28 168/108/29 149/109/29 
f 149/109/29 168/108/29 169/110/30 147/111/30 
f 147/112/30 169/113/30 170/114/31 151/115/31 
f 151/115/31 170/114/31 171/116/32 150/117/32 
f 150/117/32 171/116/32 172/118/33 152/119/33 
f 152/119/33 172/118/33 155/83/15 153/82/15 
f 155/83/15 173/120/15 174/121/16 156/84/16 
f 156/84/16 174/121/16 175/122/17 157/86/17 
f 157/86/17 175/122/17 176/123/18 158/88/18 
f 158/88/18 176/123/18 177/124/19 159/90/19 
f 159/90/19 177/124/19 178/149/20 160/92/20 
f 160/92/20 178/149/20 179/150/21 161/94/21 
f 161/94/21 179/150/21 180/151/37 162/96/22 
f 162/96/22 180/151/37 181/152/38 163/98/23 
f 163/98/23 181/152/38 182/153/39 164/100/25 
f 164/100/25 182/153/39 183/154/40 165/102/26 
f 165/102/26 183/154/40 184/155/41 166/104/27 
f 166/104/27 184/155/41 185/156/28 167/106/28 
f 167/106/28 185/156/28 186/157/42 168/108/29 
f 168/108/29 186/157/42 187/158/43 169/110/30 
f 169/113/30 187/125/43 188/126/31 170/114/31 
f 170/114/31 188/126/31 189/127/32 171/116/32 
f 171/116/32 189/127/32 190/128/33 172/118/33 
f 172/118/33 190/128/33 173/120/15 155/83/15 
f 86/82/15 31/159/44 32/160/33 121/119/33 
f 89/85/16 15/161/16 31/159/44 86/82/15 
f 91/87/17 47/162/17 15/161/16 89/85/16 
f 93/89/18 46/163/18 47/162/17 91/87/17 
f 95/91/19 45/164/19 46/163/18 93/89/18 
f 97/93/20 44/165/20 45/164/19 95/91/19 
f 99/95/21 43/166/21 44/165/20 97/93/20 
f 101/97/22 42/167/22 43/166/21 99/95/21 
f 103/99/23 41/168/23 42/167/22 101/97/22 
f 105/101/25 40/169/25 41/168/23 103/99/23 
f 107/103/26 39/170/26 40/169/25 105/101/25 
f 109/105/27 38/171/27 39/170/26 107/103/26 
f 111/107/28 37/172/28 38/171/27 109/105/27 
f 113/109/29 36/173/29 37/172/28 111/107/28 
f 115/111/30 35/174/30 36/173/29 113/109/29 
f 117/115/31 34/175/31 35/176/30 115/112/30 
f 119/117/32 33/177/32 34/175/31 117/115/31 
f 121/119/33 32/160/33 33/177/32 119/117/32 
f 133/85/16 132/132/16 154/147/15 153/82/15 
f 135/89/18 28/134/18 29/131/17 131/87/17 
f 138/93/20 26/136/20 27/133/19 134/91/19 
f 141/97/22 25/138/22 137/135/21 136/95/21 
f 144/101/25 23/140/25 140/137/23 139/99/23 
f 146/105/27 18/142/27 143/139/26 142/103/26 
f 149/109/29 148/144/29 11/141/28 145/107/28 
f 151/115/31 16/146/31 17/178/30 147/112/30 
f 152/119/33 13/148/33 12/145/32 150/117/32 
f 96/92/20 79/179/45 78/180/46 98/94/21 
f 79/179/45 96/92/20 94/90/19 126/124/35 
f 60/181/1 79/179/45 126/124/35 
f 100/96/22 77/182/47 76/183/48 102/98/23 
f 98/94/21 78/180/46 77/182/47 100/96/22 
f 75/184/24 74/185/49 106/102/26 104/100/24 
f 102/98/23 76/183/48 75/184/24 104/100/24 
f 73/186/50 72/187/51 110/106/28 108/104/27 
f 74/185/49 73/186/50 108/104/27 106/102/26 
f 72/187/51 71/188/52 112/108/29 110/106/28 
f 70/189/53 191/190/54 127/158/30 
f 71/188/52 70/189/53 127/158/30 112/108/29 
f 127/158/30 114/110/30 112/108/29 
f 122/120/15 65/130/15 64/191/55 123/121/16 
f 124/122/34 123/121/16 64/191/55 63/192/56 
f 125/123/18 124/122/34 63/192/56 62/193/57 
f 61/194/58 60/181/1 126/124/35 
f 126/124/35 125/123/18 62/193/57 61/194/58 
f 191/195/54 192/196/59 128/126/31 127/125/30 
f 129/127/32 128/126/31 192/196/59 67/197/60 
f 130/128/33 129/127/32 67/197/60 66/129/36 
f 174/121/16 56/198/61 55/199/56 175/122/17 
f 173/120/15 57/200/15 56/198/61 174/121/16 
f 176/123/18 54/201/57 53/202/62 177/124/19 
f 175/122/17 55/199/56 54/201/57 176/123/18 
f 177/124/19 53/202/62 52/203/45 178/149/20 
f 179/150/21 178/149/20 52/203/45 51/204/46 
f 180/151/37 179/150/21 51/204/46 50/205/63 
f 181/152/38 180/151/37 50/205/63 49/206/64 
f 182/153/39 181/152/38 49/206/64 48/207/65 
f 183/154/40 182/153/39 48/207/65 80/208/66 
f 184/155/41 183/154/40 80/208/66 81/209/67 
f 185/156/28 184/155/41 81/209/67 85/210/51 
f 186/157/42 185/156/28 85/210/51 84/211/52 
f 83/212/54 82/213/59 188/126/31 187/125/43 
f 187/158/43 186/157/42 84/211/52 83/214/54 
f 59/215/60 58/216/36 190/128/33 189/127/32 
f 82/213/59 59/215/60 189/127/32 188/126/31 
f 58/216/36 57/200/15 173/120/15 190/128/33 
# 181 polygons - 7 triangles

