# 3ds Max Wavefront OBJ Exporter v0.97b - (c)2007 guruware
# File Created: 17.02.2017 16:17:16

mtllib Door.mtl

#
# object Box002
#

v  -70.0000 -1.8736 -0.0000
v  -70.0000 -1.8735 -220.0000
v  70.0000 -1.8735 -220.0000
v  70.0000 -1.8736 -0.0000
v  70.0000 1.8736 -0.0000
v  -70.0000 1.8736 -0.0000
v  70.0000 1.8736 -220.0000
v  -70.0000 1.8736 -220.0000
v  18.7776 1.3663 -90.3957
v  18.7776 1.3663 -30.5658
v  51.4121 1.3663 -30.5658
v  51.4121 1.3663 -90.3957
v  51.4121 1.8736 -30.5658
v  51.4121 1.8736 -90.3957
v  18.7776 1.8736 -90.3957
v  18.7776 1.8736 -30.5658
v  -51.4121 1.3663 -89.4342
v  -51.4121 1.3663 -29.6043
v  -18.7776 1.3663 -29.6043
v  -18.7776 1.3663 -89.4342
v  -18.7776 1.8736 -29.6043
v  -18.7776 1.8736 -89.4342
v  -51.4121 1.8736 -89.4342
v  -51.4121 1.8736 -29.6043
v  -51.4121 1.3663 -189.4342
v  -51.4121 1.3663 -129.6043
v  -18.7776 1.3663 -129.6043
v  -18.7776 1.3663 -189.4342
v  -18.7776 1.8736 -129.6043
v  -18.7776 1.8736 -189.4342
v  -51.4121 1.8736 -189.4342
v  -51.4121 1.8736 -129.6043
v  18.7776 1.3663 -190.3957
v  18.7776 1.3663 -130.5658
v  51.4121 1.3663 -130.5658
v  51.4121 1.3663 -190.3957
v  51.4121 1.8736 -130.5658
v  51.4121 1.8736 -190.3957
v  18.7776 1.8736 -190.3957
v  18.7776 1.8736 -130.5658
# 40 vertices

vn 0.0000 -1.0000 -0.0000
vn 0.0000 0.0000 1.0000
vn 1.0000 0.0000 -0.0000
vn 0.0000 0.0000 -1.0000
vn -1.0000 0.0000 -0.0000
vn 0.0000 1.0000 0.0000
vn 1.0000 -0.0000 0.0000
vn 1.0000 -0.0000 -0.0000
vn -1.0000 0.0000 0.0000
vn -0.0000 -0.0000 1.0000
vn 0.0000 -0.0000 1.0000
vn -0.0000 1.0000 0.0000
vn 0.0000 1.0000 -0.0000
vn -0.0000 1.0000 -0.0000
# 14 vertex normals

vt 1.0000 0.0000 0.0000
vt 1.0000 1.0000 0.0000
vt 0.0000 1.0000 0.0000
vt 0.0000 0.0000 0.0000
vt 1.0000 0.3421 0.0000
vt 0.0000 0.3421 0.0000
vt 0.8672 0.8654 0.0000
vt 0.8672 0.5935 0.0000
vt 0.8672 0.4109 0.0000
vt 0.6341 0.8654 0.0000
vt 0.3659 0.8611 0.0000
vt 0.6341 0.5935 0.0000
vt 0.6341 0.4109 0.0000
vt 0.8672 0.1389 0.0000
vt 0.6341 0.1389 0.0000
vt 0.3659 0.5891 0.0000
vt 0.3659 0.4065 0.0000
vt 0.1328 0.5891 0.0000
vt 0.1328 0.4065 0.0000
vt 0.3659 0.1346 0.0000
vt 0.1328 0.1346 0.0000
vt 0.1328 0.8611 0.0000
# 22 texture coords

g Box002
usemtl wire_224086086
s 2
f 1/1/1 2/2/1 3/3/1 4/4/1 
s 8
f 1/4/2 4/1/2 5/2/2 6/3/2 
s 16
f 4/4/3 3/1/3 7/2/3 5/3/3 
s 32
f 3/4/4 2/1/4 8/2/4 7/3/4 
s 64
f 2/4/5 1/1/5 6/2/5 8/3/5 
s 2
f 9/1/6 10/2/6 11/3/6 12/4/6 
s 16
f 11/1/5 13/5/5 14/6/5 12/4/5 
s 64
f 10/4/3 9/1/3 15/5/3 16/6/3 
s 2
f 17/1/6 18/2/6 19/3/6 20/4/6 
s 16
f 19/1/5 21/5/5 22/6/5 20/4/5 
s 64
f 18/4/7 17/1/8 23/5/7 24/6/7 
s 2
f 25/1/6 26/2/6 27/3/6 28/4/6 
s 16
f 27/1/5 29/5/5 30/6/5 28/4/5 
s 64
f 26/4/3 25/1/3 31/5/3 32/6/3 
s 2
f 33/1/6 34/2/6 35/3/6 36/4/6 
s 16
f 35/1/9 37/5/9 38/6/9 36/4/5 
s 64
f 34/4/3 33/1/3 39/5/3 40/6/3 
s 8
f 12/1/10 14/5/10 15/6/10 9/4/11 
s 32
f 10/1/4 16/5/4 13/6/4 11/4/4 
s 8
f 20/1/11 22/5/11 23/6/11 17/4/11 
s 32
f 18/1/4 24/5/4 21/6/4 19/4/4 
s 8
f 28/1/11 30/5/11 31/6/11 25/4/11 
s 32
f 26/1/4 32/5/4 29/6/4 27/4/4 
s 8
f 36/1/11 38/5/11 39/6/11 33/4/11 
s 32
f 34/1/4 40/5/4 37/6/4 35/4/4 
s 4
f 38/7/6 37/8/12 14/9/12 7/2/12 
f 39/10/12 38/7/6 7/2/12 30/11/12 
f 37/8/12 40/12/13 30/11/12 15/13/12 
f 37/8/12 15/13/12 14/9/12 
f 5/1/14 7/2/12 14/9/12 13/14/12 
f 6/4/6 5/1/14 13/14/12 16/15/12 
f 15/13/12 30/11/12 29/16/12 22/17/12 
f 29/16/12 32/18/13 8/3/6 23/19/6 
f 29/16/12 23/19/6 22/17/12 
f 16/15/12 15/13/12 22/17/12 21/20/14 
f 6/4/6 16/15/12 21/20/14 24/21/6 
f 6/4/6 24/21/6 23/19/6 8/3/6 
f 8/3/6 32/18/13 31/22/6 30/11/12 
f 7/2/12 8/3/6 30/11/12 
f 40/12/13 39/10/12 30/11/12 
# 36 polygons - 4 triangles

