# 3ds Max Wavefront OBJ Exporter v0.97b - (c)2007 guruware
# File Created: 10.02.2017 11:21:28

mtllib WeirdPlusThingy.mtl

#
# object Box004
#

v  -4.3337 28.8949 -30.2888
v  -4.3337 55.0271 -30.2888
v  4.3305 55.0271 -30.2888
v  4.3305 28.8949 -30.2888
v  -4.3337 28.8949 29.2423
v  4.3305 28.8949 29.2423
v  4.3305 55.0271 29.2423
v  -4.3337 55.0271 29.2423
v  30.1333 28.8949 -6.2329
v  30.1333 55.0271 -6.2329
v  30.1333 55.0271 2.4312
v  30.1333 28.8949 2.4312
v  -29.3978 28.8949 -6.2329
v  -29.3978 28.8949 2.4312
v  -29.3978 55.0271 2.4312
v  -29.3978 55.0271 -6.2329
v  -13.0208 5.2157 2.2342
v  -13.0208 5.2157 -2.7966
v  13.5307 5.2157 -2.7966
v  13.5307 5.2157 2.2342
v  -13.0208 35.6800 2.2342
v  13.5307 35.6800 2.2342
v  13.5307 35.6800 -2.7966
v  -13.0208 35.6800 -2.7966
v  -25.6738 0.0000 15.2034
v  -25.6738 -0.0000 -14.7966
v  24.3262 -0.0000 -14.7966
v  24.3262 0.0000 15.2034
v  -25.6738 10.0000 15.2034
v  24.3262 10.0000 15.2034
v  24.3262 10.0000 -14.7966
v  -25.6738 10.0000 -14.7966
# 32 vertices

vn 0.0000 0.0000 -1.0000
vn 0.0000 -0.0000 1.0000
vn 0.0000 -1.0000 -0.0000
vn 1.0000 0.0000 -0.0000
vn 0.0000 1.0000 0.0000
vn -1.0000 0.0000 -0.0000
vn -1.0000 -0.0000 0.0000
vn 0.0000 -1.0000 0.0000
vn -0.0000 -0.0000 1.0000
vn -0.0000 1.0000 -0.0000
vn 0.0000 0.0000 1.0000
vn 0.0000 1.0000 -0.0000
vn 0.0000 -0.0000 -1.0000
# 13 vertex normals

vt 1.0000 0.0000 0.0000
vt 1.0000 1.0000 0.0000
vt 0.0000 1.0000 0.0000
vt 0.0000 0.0000 0.0000
# 4 texture coords

g Box004
usemtl wire_228214153
s 2
f 1/1/1 2/2/1 3/3/1 4/4/1 
s 4
f 5/4/2 6/1/2 7/2/2 8/3/2 
s 8
f 1/4/3 4/1/3 6/2/3 5/3/3 
s 16
f 4/4/4 3/1/4 7/2/4 6/3/4 
s 32
f 3/4/5 2/1/5 8/2/5 7/3/5 
s 64
f 2/4/6 1/1/6 5/2/6 8/3/6 
s 2
f 9/1/4 10/2/4 11/3/4 12/4/4 
s 4
f 13/4/7 14/1/7 15/2/7 16/3/7 
s 8
f 9/4/8 12/1/8 14/2/8 13/3/8 
s 16
f 12/4/9 11/1/9 15/2/9 14/3/9 
s 32
f 11/4/10 10/1/10 16/2/10 15/3/10 
s 64
f 10/4/1 9/1/1 13/2/1 16/3/1 
s 2
f 17/1/3 18/2/3 19/3/3 20/4/3 
s 4
f 21/4/5 22/1/5 23/2/5 24/3/5 
s 8
f 17/4/11 20/1/11 22/2/11 21/3/11 
s 16
f 20/4/4 19/1/4 23/2/4 22/3/4 
s 32
f 19/4/1 18/1/1 24/2/1 23/3/1 
s 64
f 18/4/6 17/1/6 21/2/6 24/3/6 
s 2
f 25/1/8 26/2/8 27/3/8 28/4/8 
s 4
f 29/4/12 30/1/12 31/2/12 32/3/12 
s 8
f 25/4/2 28/1/2 30/2/2 29/3/2 
s 16
f 28/4/4 27/1/4 31/2/4 30/3/4 
s 32
f 27/4/13 26/1/13 32/2/13 31/3/13 
s 64
f 26/4/6 25/1/6 29/2/6 32/3/6 
# 24 polygons

