mtllib ./House.mtl
g Cube
v -3.5 2.5 2
v 0 2 2
v 0 2.5 2
v -4 2 2
v -5.796525 2.5 2
v -4 2 2
v -5.796525 2 2
v -5.796525 5 2
v -3.5 5 2
v -5.796525 2.5 2
v -5.796525 2.5 0
v -5.796525 2 2
v -5.796525 2.5 2
v -5.796525 2 0
v -5.796525 2.5 -2
v -5.796525 2 -2
v -5.796525 5 -2
v -5.796525 6 0
v -5.796525 5 2
v -5.796525 2 -2
v -5.796525 2.5 -2
v -4 2 -2
v -3.5 2.5 -2
v -4 2 -2
v 0 2 -2
v 0 2.5 -2
v -5.796525 2.5 -2
v -5.796525 5 -2
v -3.5 5 -2
v -3.5 5 2
v -5.796525 6 0
v -5.796525 5 2
v -3 6 0
v -3 6 0
v -5.796525 5 -2
v -5.796525 6 0
v -3.5 5 -2
v 0 2 -2
v 0 2 0
v -4 2 -2
v -4 2 0
v -4 2 -2
v -4 2 0
v -5.796525 2 -2
v -5.796525 2 0
v -4 2 2
v -5.796525 2 2
v 0 2 2
v -4 2 2
v 0 3.75 2
v 0 4.375 2
v 0 5 2
v 0 3.125 2
v 0 3.75 -2
v 0 3.125 -2
v 0 5 -2
v 0 4.375 -2
v 0 2.5 -1.5
v 0 2 -2
v 0 2.5 -2
v 0 2.5 -1
v 0 2 0
v 0 2.5 -0.5
v 0 2.5 0
v 0 2.5 0.5
v 0 2.5 1
v 0 2 2
v 0 2.5 1.5
v 0 2.5 2
v 0 5.25 1.5
v 0 5 2
v 0 5.5 1
v 0 5.75 0.5
v 0 6 0
v 0 5.75 -0.5
v 0 6 0
v 0 5.25 -1.5
v 0 5.5 -1
v 0 5 -2
v 0 3.208333 0.5
v 0 3.166667 1.25
v 0 4.6 0
v 0 4.75 0.45
v 0 3.75 2
v 0 3.125 2
v 0 3.166667 1.25
v 0 2.854167 0
v 0 3.208333 -0.5
v 0 3.125 -2
v 0 3.166667 -1.25
v 0 3.75 -2
v 0 3.166667 -1.25
v 0 4.8 -0.4
v 0 4.375 -2
v 0 5.1 -0.5
v 0 5 -2
v 0 5.1 -0.5
v 0 5.25 -1.5
v 0 5.5 -1
v 0 5.5 -0.45
v 0 5.75 -0.5
v 0 5.65 0
v 0 6 0
v 0 5.75 0.5
v 0 5.5 0.45
v 0 5.65 0
v 0 5.5 1
v 0 5.1 0.6
v 0 5.25 1.5
v 0 5 2
v 0 4.375 2

vn 0 0 -1
vn 0 0 -1
vn 0 0 -1
vn 0 0 -1
vn 0 0 -0.9999999
vn 0 0 -0.9999999
vn 0 0 -0.9999999
vn 0 0 -1
vn 0 0 -1
vn 0 0 -1
vn 1 0 0
vn 1 0 0
vn 1 0 0
vn 1 0 0
vn 1 0 0
vn 1 0 0
vn 1 0 0
vn 1 0 0
vn 1 0 0
vn 0 0 0.9999999
vn 0 0 0.9999999
vn 0 0 0.9999999
vn 0 0 1
vn 0 0 1
vn 0 0 1
vn 0 0 1
vn 0 0 1
vn 0 0 1
vn 0 0 1
vn 0 -0.8944272 -0.4472136
vn 0 -0.8944272 -0.4472136
vn 0 -0.8944273 -0.4472136
vn 0 -0.8944272 -0.4472136
vn 0 -0.8944272 0.4472136
vn 0 -0.8944272 0.4472136
vn 0 -0.8944272 0.4472136
vn 0 -0.8944273 0.4472136
vn 0 1 0
vn 0 1 0
vn 0 1 0
vn 0 1 0
vn 0 0.9999999 0
vn 0 0.9999999 0
vn 0 0.9999999 0
vn 0 0.9999999 0
vn 0 0.9999999 0
vn 0 0.9999999 0
vn 0 1 0
vn 0 1 0
vn 0 0 -1
vn 0 0 -1
vn 0 0 -1
vn 0 0 -1
vn 0 0 1
vn 0 0 1
vn 0 0 1
vn 0 0 1
vn -1 0 0
vn -1 0 0
vn -1 0 0
vn -1 0 0
vn -1 0 0
vn -1 0 0
vn -1 0 0
vn -1 0 0
vn -1 0 0
vn -1 0 0
vn -1 0 0
vn -1 0 0
vn 0 -0.8944272 -0.4472136
vn 0 -0.8944272 -0.4472136
vn 0 -0.8944272 -0.4472136
vn 0 -0.8944272 -0.4472136
vn 0 -0.8944272 -0.4472136
vn 0 -0.8944272 0.4472136
vn 0 -0.8944272 0.4472136
vn 0 -0.8944272 0.4472136
vn 0 -0.8944272 0.4472136
vn 0 -0.8944272 0.4472136
vn -1 0 0
vn -1 0 0
vn -1 0 0
vn -1 0 0
vn -1 0 0
vn -1 0 0
vn -0.9999999 0 0
vn -1 0 0
vn -1 0 0
vn -1 0 0
vn -0.9999999 0 0
vn -1 0 0
vn -1 0 0
vn -1 0 0
vn -1 0 0
vn -1 0 0
vn -0.9999999 0 0
vn -0.9999999 0 0
vn -1 0 0
vn -1 0 0
vn -1 0 0
vn -1 0 0
vn -1 0 0
vn -1 0 0
vn -1 0 0
vn -1 0 0
vn -0.9999999 0 0
vn -1 0 0
vn -1 0 0
vn -1 0 0
vn -1 0 0
vn -1 0 0

vt 2.296525 0.5
vt 5.796525 0
vt 5.796525 0.5
vt 1.796525 0
vt 0 0.5
vt 1.796525 0
vt 0 0
vt 0 3
vt 2.296525 3
vt 0 0.5
vt 2 0.5
vt 4 0
vt 4 0.5
vt 2 0
vt 0 0.5
vt 0 0
vt 0 3
vt 2 4
vt 4 3
vt 0 0
vt 0 0.5
vt 1.796525 0
vt 2.296525 0.5
vt 1.796525 0
vt 5.796525 0
vt 5.796525 0.5
vt 0 0.5
vt 0 3
vt 2.296525 3
vt 3.508992 4
vt 5.796283 2
vt 5.805421 4
vt 2.999875 2
vt 2.999875 2
vt 5.805421 0
vt 5.796283 2
vt 3.508992 0
vt 0 0
vt 0 2
vt 4 0
vt 4 2
vt 4 0
vt 4 2
vt 5.796525 0
vt 5.796525 2
vt 4 4
vt 5.796525 4
vt 0 4
vt 4 4
vt 5.796525 1.75
vt 5.796525 2.375
vt 5.796525 3
vt 5.796525 1.125
vt 5.796525 1.75
vt 5.796525 1.125
vt 5.796525 3
vt 5.796525 2.375
vt 0.5 0.5
vt 0 0
vt 0 0.5
vt 1 0.5
vt 2 0
vt 1.5 0.5
vt 2 0.5
vt 2.5 0.5
vt 3 0.5
vt 4 0
vt 3.5 0.5
vt 4 0.5
vt 0.00685329 3.5
vt 0.009137724 4
vt 0.00456886 3
vt 0.00228443 2.5
vt 0 2
vt 0.00228443 1.5
vt 0 2
vt 0.00685329 0.5
vt 0.00456886 1
vt 0.009137724 0
vt 2.5 1.208333
vt 3.25 1.166667
vt 2 2.6
vt 2.45 2.75
vt 4 1.75
vt 4 1.125
vt 3.25 1.166667
vt 2 0.8541667
vt 1.5 1.208333
vt 0 1.125
vt 0.75 1.166667
vt 0 1.75
vt 0.75 1.166667
vt 1.6 2.8
vt 0 2.375
vt 1.5 3.1
vt 0 3
vt 1.5 3.1
vt 0.5 3.25
vt 1 3.5
vt 1.55 3.5
vt 1.5 3.75
vt 2 3.65
vt 2 4
vt 2.5 3.75
vt 2.45 3.5
vt 2 3.65
vt 3 3.5
vt 2.6 3.1
vt 3.5 3.25
vt 4 3
vt 4 2.375

g Default_Prototype
usemtl Default_Prototype
usemap Default_Prototype
f 2/2/2 1/1/1 3/3/3
f 1/1/1 2/2/2 4/4/4
f 6/6/6 5/5/5 1/1/1
f 5/5/5 6/6/6 7/7/7
f 1/1/1 8/8/8 9/9/9
f 8/8/8 1/1/1 10/10/10
f 12/12/12 11/11/11 13/13/13
f 11/11/11 12/12/12 14/14/14
f 14/14/14 15/15/15 11/11/11
f 15/15/15 14/14/14 16/16/16
f 11/11/11 17/17/17 18/18/18
f 17/17/17 11/11/11 15/15/15
f 13/13/13 18/18/18 19/19/19
f 18/18/18 13/13/13 11/11/11
f 21/21/21 20/20/20 22/22/22
f 22/22/22 23/23/23 21/21/21
f 23/23/23 24/24/24 25/25/25
f 25/25/25 26/26/26 23/23/23
f 28/28/28 27/27/27 23/23/23
f 23/23/23 29/29/29 28/28/28
f 31/31/31 30/30/30 32/32/32
f 30/30/30 31/31/31 33/33/33
f 35/35/35 34/34/34 36/36/36
f 34/34/34 35/35/35 37/37/37
f 39/39/39 38/38/38 40/40/40
f 40/40/40 41/41/41 39/39/39
f 43/43/43 42/42/42 44/44/44
f 44/44/44 45/45/45 43/43/43
f 46/46/46 43/43/43 45/45/45
f 45/45/45 47/47/47 46/46/46
f 48/48/48 39/39/39 41/41/41
f 41/41/41 49/49/49 48/48/48
f 50/50/50 9/9/9 51/51/51
f 51/51/51 9/9/9 52/52/52
f 53/53/53 1/1/1 50/50/50
f 53/53/53 3/3/3 1/1/1
f 9/9/9 50/50/50 1/1/1
f 29/29/29 23/23/23 54/54/54
f 55/55/55 23/23/23 26/26/26
f 55/55/55 54/54/54 23/23/23
f 57/57/57 56/56/56 29/29/29
f 54/54/54 57/57/57 29/29/29
f 59/59/59 58/58/58 60/60/60
f 58/58/58 59/59/59 61/61/61
f 61/61/61 62/62/62 63/63/63
f 62/62/62 61/61/61 59/59/59
f 64/64/64 63/63/63 62/62/62
f 62/62/62 65/65/65 64/64/64
f 65/65/65 62/62/62 66/66/66
f 66/66/66 67/67/67 68/68/68
f 67/67/67 66/66/66 62/62/62
f 69/69/69 68/68/68 67/67/67
f 30/30/30 70/70/70 71/71/71
f 33/33/33 72/72/72 70/70/70
f 70/70/70 30/30/30 33/33/33
f 72/72/72 33/33/33 73/73/73
f 73/73/73 33/33/33 74/74/74
f 34/34/34 75/75/75 76/76/76
f 34/34/34 37/37/37 77/77/77
f 78/78/78 75/75/75 34/34/34
f 78/78/78 34/34/34 77/77/77
f 77/77/77 37/37/37 79/79/79
f 80/80/80 66/66/66 81/81/81
f 68/68/68 81/81/81 66/66/66
f 82/82/82 80/80/80 83/83/83
f 81/81/81 83/83/83 80/80/80
f 83/83/83 81/81/81 84/84/84
f 85/85/85 84/84/84 81/81/81
f 86/86/86 68/68/68 85/85/85
f 69/69/69 85/85/85 68/68/68
f 63/63/63 64/64/64 87/87/87
f 65/65/65 87/87/87 64/64/64
f 61/61/61 63/63/63 88/88/88
f 87/87/87 88/88/88 63/63/63
f 88/88/88 87/87/87 80/80/80
f 80/80/80 82/82/82 88/88/88
f 87/87/87 65/65/65 80/80/80
f 66/66/66 80/80/80 65/65/65
f 89/89/89 60/60/60 58/58/58
f 58/58/58 90/90/90 89/89/89
f 91/91/91 89/89/89 92/92/92
f 92/92/92 93/93/93 91/91/91
f 93/93/93 92/92/92 88/88/88
f 88/88/88 82/82/82 93/93/93
f 92/92/92 58/58/58 61/61/61
f 61/61/61 88/88/88 92/92/92
f 94/94/94 91/91/91 95/95/95
f 93/93/93 95/95/95 91/91/91
f 96/96/96 94/94/94 97/97/97
f 97/97/97 98/98/98 96/96/96
f 98/98/98 95/95/95 99/99/99
f 100/100/100 99/99/99 95/95/95
f 99/99/99 100/100/100 101/101/101
f 102/102/102 101/101/101 100/100/100
f 101/101/101 102/102/102 103/103/103
f 104/104/104 103/103/103 102/102/102
f 106/106/106 105/105/105 104/104/104
f 107/107/107 104/104/104 105/105/105
f 107/107/107 105/105/105 108/108/108
f 108/108/108 109/109/109 107/107/107
f 109/109/109 108/108/108 110/110/110
f 111/111/111 110/110/110 108/108/108
f 108/108/108 83/83/83 84/84/84
f 84/84/84 111/111/111 108/108/108
