# This file uses centimeters as units for non-parametric coordinates.

mtllib Barrel.mtl
g default
v -12.715399 -0.062044 -1.407491
v -12.785279 -0.062044 -1.544640
v -12.894121 -0.062044 -1.653482
v -13.031269 -0.062044 -1.723363
v -13.183301 -0.062044 -1.747442
v -13.335332 -0.062044 -1.723363
v -13.472481 -0.062044 -1.653482
v -13.581323 -0.062044 -1.544640
v -13.651203 -0.062044 -1.407491
v -13.675282 -0.062044 -1.255461
v -13.651203 -0.062044 -1.103430
v -13.581323 -0.062044 -0.966281
v -13.472481 -0.062044 -0.857439
v -13.335331 -0.062044 -0.787558
v -13.183301 -0.062044 -0.763479
v -13.031270 -0.062044 -0.787558
v -12.894121 -0.062044 -0.857439
v -12.785279 -0.062044 -0.966281
v -12.715399 -0.062044 -1.103430
v -12.691320 -0.062044 -1.255461
v -12.738964 1.303483 -1.399834
v -12.805325 1.303483 -1.530076
v -12.908686 1.303483 -1.633436
v -13.038926 1.303483 -1.699797
v -13.183301 1.303483 -1.722664
v -13.327675 1.303483 -1.699797
v -13.457916 1.303483 -1.633436
v -13.561276 1.303483 -1.530076
v -13.627637 1.303483 -1.399834
v -13.650503 1.303483 -1.255461
v -13.627637 1.303483 -1.111087
v -13.561276 1.303483 -0.980846
v -13.457916 1.303483 -0.877485
v -13.327674 1.303483 -0.811124
v -13.183301 1.303483 -0.788258
v -13.038927 1.303483 -0.811124
v -12.908686 1.303483 -0.877485
v -12.805325 1.303483 -0.980846
v -12.738964 1.303483 -1.111087
v -12.716099 1.303483 -1.255461
v -13.183301 -0.062044 -1.255461
v -13.183301 1.303483 -1.255461
v -13.601394 1.019532 -0.951698
v -13.674798 1.019532 -1.095763
v -13.700091 1.019532 -1.255461
v -13.674798 1.019532 -1.415158
v -13.601394 1.019532 -1.559223
v -13.487063 1.019532 -1.673554
v -13.342998 1.019532 -1.746959
v -13.183301 1.019532 -1.772252
v -13.023602 1.019532 -1.746959
v -12.879538 1.019532 -1.673554
v -12.765208 1.019532 -1.559223
v -12.691802 1.019532 -1.415158
v -12.666510 1.019532 -1.255461
v -12.691802 1.019532 -1.095763
v -12.765208 1.019532 -0.951698
v -12.879538 1.019532 -0.837367
v -13.023603 1.019532 -0.763963
v -13.183301 1.019532 -0.738669
v -13.342997 1.019532 -0.763962
v -13.487063 1.019532 -0.837367
v -13.621466 0.699491 -0.937115
v -13.698394 0.699491 -1.088096
v -13.724901 0.699491 -1.255461
v -13.698394 0.699491 -1.422825
v -13.621466 0.699491 -1.573806
v -13.501647 0.699491 -1.693625
v -13.350665 0.699491 -1.770554
v -13.183301 0.699491 -1.797062
v -13.015935 0.699491 -1.770554
v -12.864955 0.699491 -1.693626
v -12.745136 0.699491 -1.573806
v -12.668207 0.699491 -1.422825
v -12.641700 0.699491 -1.255461
v -12.668207 0.699491 -1.088096
v -12.745136 0.699491 -0.937115
v -12.864955 0.699491 -0.817296
v -13.015936 0.699491 -0.740367
v -13.183301 0.699491 -0.713859
v -13.350665 0.699491 -0.740367
v -13.501647 0.699491 -0.817296
v -13.603081 0.184264 -0.950473
v -13.676781 0.184264 -1.095119
v -13.702177 0.184264 -1.255461
v -13.676781 0.184264 -1.415802
v -13.603081 0.184264 -1.560449
v -13.488289 0.184264 -1.675241
v -13.343643 0.184264 -1.748942
v -13.183301 0.184264 -1.774337
v -13.022958 0.184264 -1.748942
v -12.878313 0.184264 -1.675241
v -12.763521 0.184264 -1.560449
v -12.689819 0.184264 -1.415802
v -12.664425 0.184264 -1.255461
v -12.689819 0.184264 -1.095119
v -12.763521 0.184264 -0.950473
v -12.878313 0.184264 -0.835681
v -13.022959 0.184264 -0.761980
v -13.183301 0.184264 -0.736584
v -13.343642 0.184264 -0.761980
v -13.488289 0.184264 -0.835681
v -13.621466 0.440676 -0.937115
v -13.698394 0.440676 -1.088096
v -13.724901 0.440676 -1.255461
v -13.698394 0.440676 -1.422825
v -13.621466 0.440676 -1.573806
v -13.501647 0.440676 -1.693625
v -13.350665 0.440676 -1.770554
v -13.183301 0.440676 -1.797062
v -13.015935 0.440676 -1.770554
v -12.864955 0.440676 -1.693626
v -12.745136 0.440676 -1.573806
v -12.668207 0.440676 -1.422825
v -12.641700 0.440676 -1.255461
v -12.668207 0.440676 -1.088096
v -12.745136 0.440676 -0.937115
v -12.864955 0.440676 -0.817296
v -13.015936 0.440676 -0.740367
v -13.183301 0.440676 -0.713859
v -13.350664 0.440676 -0.740367
v -13.501647 0.440676 -0.817296
v -12.763734 1.325694 -1.391786
v -12.826397 1.325694 -1.514767
v -12.923995 1.325694 -1.612365
v -13.046974 1.325694 -1.675027
v -13.183301 1.325694 -1.696619
v -13.319626 1.325694 -1.675027
v -13.442607 1.325694 -1.612365
v -13.540206 1.325694 -1.514767
v -13.602867 1.325694 -1.391786
v -13.624458 1.325694 -1.255461
v -13.602867 1.325694 -1.119135
v -13.540206 1.325694 -0.996154
v -13.442607 1.325694 -0.898556
v -13.319625 1.325694 -0.835894
v -13.183301 1.325694 -0.814302
v -13.046975 1.325694 -0.835894
v -12.923995 1.325694 -0.898556
v -12.826397 1.325694 -0.996154
v -12.763734 1.325694 -1.119135
v -12.742142 1.325694 -1.255461
vt 1.100032 -0.000000
vt 1.200032 -0.000000
vt 1.200032 1.000000
vt 1.100032 1.000000
vt 1.300032 -0.000000
vt 1.300032 1.000000
vt 1.400032 1.000000
vt -0.499968 -0.000000
vt -0.499968 1.000000
vt -0.399968 -0.000000
vt -0.399968 1.000000
vt -0.299968 -0.000000
vt -0.299968 1.000000
vt -0.199968 -0.000000
vt -0.199968 1.000000
vt -0.099968 -0.000000
vt -0.099968 1.000000
vt 0.000032 -0.000000
vt 0.000032 1.000000
vt 0.100032 -0.000000
vt 0.100032 1.000000
vt 0.200032 -0.000000
vt 0.200032 1.000000
vt 0.300032 -0.000000
vt 0.300032 1.000000
vt 0.400032 -0.000000
vt 0.400032 1.000000
vt 0.500032 -0.000000
vt 0.500032 1.000000
vt 0.600032 -0.000000
vt 0.600032 1.000000
vt 0.700032 -0.000000
vt 0.700032 1.000000
vt 0.800032 -0.000000
vt 0.800032 1.000000
vt 0.900032 -0.000000
vt 0.900032 1.000000
vt 1.000032 -0.000000
vt 1.000032 1.000000
vt 0.499968 -0.000000
vt 0.499968 1.000000
vt 1.500032 -0.000000
vt 1.400032 -0.000000
vt 1.500032 1.000000
vt 2.499968 1.000000
vt 0.200032 0.792057
vt 0.100032 0.792057
vt 0.000032 0.792057
vt -0.099968 0.792057
vt -0.199968 0.792057
vt -0.299968 0.792057
vt -0.399968 0.792057
vt 1.500032 0.792057
vt -0.499968 0.792057
vt 1.400032 0.792057
vt 1.300032 0.792057
vt 1.200032 0.792057
vt 1.100032 0.792057
vt 1.000032 0.792057
vt 0.900032 0.792057
vt 0.800032 0.792057
vt 0.700032 0.792057
vt 0.600032 0.792057
vt 0.500032 0.792057
vt 0.400032 0.792057
vt 0.300032 0.792057
vt 0.200032 0.557686
vt 0.100032 0.557686
vt 0.000032 0.557686
vt -0.099968 0.557686
vt -0.199968 0.557686
vt -0.299968 0.557686
vt -0.399968 0.557686
vt 1.500032 0.557686
vt -0.499968 0.557686
vt 1.400032 0.557686
vt 1.300032 0.557686
vt 1.200032 0.557686
vt 1.100032 0.557686
vt 1.000032 0.557686
vt 0.900032 0.557686
vt 0.800032 0.557686
vt 0.700032 0.557686
vt 0.600032 0.557686
vt 0.500032 0.557686
vt 0.400032 0.557686
vt 0.300032 0.557686
vt 0.200032 0.180376
vt 0.100032 0.180376
vt 0.000032 0.180376
vt -0.099968 0.180376
vt -0.199968 0.180376
vt -0.299968 0.180376
vt -0.399968 0.180376
vt 1.500032 0.180376
vt -0.499968 0.180376
vt 1.400032 0.180376
vt 1.300032 0.180376
vt 1.200032 0.180376
vt 1.100032 0.180376
vt 1.000032 0.180376
vt 0.900032 0.180376
vt 0.800032 0.180376
vt 0.700032 0.180376
vt 0.600032 0.180376
vt 0.500032 0.180376
vt 0.400032 0.180376
vt 0.300032 0.180376
vt 0.200032 0.368151
vt 0.100032 0.368151
vt 0.000032 0.368151
vt -0.099968 0.368151
vt -0.199968 0.368151
vt -0.299968 0.368151
vt -0.399968 0.368151
vt 1.500032 0.368151
vt -0.499968 0.368151
vt 1.400032 0.368151
vt 1.300032 0.368151
vt 1.200032 0.368151
vt 1.100032 0.368151
vt 1.000032 0.368151
vt 0.900032 0.368151
vt 0.800032 0.368151
vt 0.700032 0.368151
vt 0.600032 0.368151
vt 0.500032 0.368151
vt 0.400032 0.368151
vt 0.300032 0.368151
vt 0.000000 0.000000
vt 1.000000 0.000000
vt 1.000000 1.000000
vt 0.000000 1.000000
vt 0.000000 0.000000
vt 1.000000 0.000000
vt 1.000000 1.000000
vt 0.000000 1.000000
vt 0.000000 0.000000
vt 1.000000 0.000000
vt 1.000000 1.000000
vt 0.000000 1.000000
vt 0.000000 0.000000
vt 1.000000 0.000000
vt 1.000000 1.000000
vt 0.000000 1.000000
vt 0.000000 0.000000
vt 1.000000 0.000000
vt 1.000000 1.000000
vt 0.000000 1.000000
vt 0.000000 0.000000
vt 1.000000 0.000000
vt 1.000000 1.000000
vt 0.000000 1.000000
vt 0.000000 0.000000
vt 1.000000 0.000000
vt 1.000000 1.000000
vt 0.000000 1.000000
vt 0.000000 0.000000
vt 1.000000 0.000000
vt 1.000000 1.000000
vt 0.000000 1.000000
vt 0.000000 0.000000
vt 1.000000 0.000000
vt 1.000000 1.000000
vt 0.000000 1.000000
vt 0.000000 0.000000
vt 1.000000 0.000000
vt 1.000000 1.000000
vt 0.000000 1.000000
vt 0.000000 0.000000
vt 1.000000 0.000000
vt 1.000000 1.000000
vt 0.000000 1.000000
vt 0.000000 0.000000
vt 1.000000 0.000000
vt 1.000000 1.000000
vt 0.000000 1.000000
vt 0.000000 0.000000
vt 1.000000 0.000000
vt 1.000000 1.000000
vt 0.000000 1.000000
vt 0.000000 0.000000
vt 1.000000 0.000000
vt 1.000000 1.000000
vt 0.000000 1.000000
vt 0.000000 0.000000
vt 1.000000 0.000000
vt 1.000000 1.000000
vt 0.000000 1.000000
vt 0.000000 0.000000
vt 1.000000 0.000000
vt 1.000000 1.000000
vt 0.000000 1.000000
vt 0.000000 0.000000
vt 1.000000 0.000000
vt 1.000000 1.000000
vt 0.000000 1.000000
vt 0.000000 0.000000
vt 1.000000 0.000000
vt 1.000000 1.000000
vt 0.000000 1.000000
vt 0.000000 0.000000
vt 1.000000 0.000000
vt 1.000000 1.000000
vt 0.000000 1.000000
vt 0.000000 0.000000
vt 1.000000 0.000000
vt 1.000000 1.000000
vt 0.000000 1.000000
vn 0.945438 -0.108548 -0.307188
vn 0.804237 -0.108547 -0.584312
vn 0.805135 -0.097846 -0.584964
vn 0.946494 -0.097845 -0.307532
vn 0.584313 -0.108547 -0.804236
vn 0.584966 -0.097846 -0.805134
vn 0.307190 -0.108547 -0.945437
vn 0.307534 -0.097846 -0.946493
vn -0.000000 -0.108547 -0.994091
vn -0.000000 -0.097846 -0.995202
vn -0.307192 -0.108547 -0.945437
vn -0.307535 -0.097846 -0.946493
vn -0.584313 -0.108547 -0.804236
vn -0.584966 -0.097846 -0.805134
vn -0.804238 -0.108546 -0.584311
vn -0.805136 -0.097846 -0.584963
vn -0.945438 -0.108547 -0.307188
vn -0.946494 -0.097845 -0.307532
vn -0.994091 -0.108547 0.000000
vn -0.995202 -0.097845 0.000000
vn -0.945438 -0.108547 0.307188
vn -0.946494 -0.097845 0.307532
vn -0.804238 -0.108546 0.584311
vn -0.805136 -0.097846 0.584963
vn -0.584312 -0.108547 0.804237
vn -0.584964 -0.097846 0.805136
vn -0.307191 -0.108547 0.945437
vn -0.307534 -0.097846 0.946493
vn 0.000000 -0.108548 0.994091
vn 0.000000 -0.097846 0.995202
vn 0.307190 -0.108548 0.945437
vn 0.307533 -0.097846 0.946493
vn 0.584311 -0.108547 0.804237
vn 0.584964 -0.097846 0.805135
vn 0.804237 -0.108547 0.584312
vn 0.805135 -0.097846 0.584964
vn 0.945438 -0.108548 0.307188
vn 0.946494 -0.097845 0.307532
vn 0.994091 -0.108548 -0.000000
vn 0.995202 -0.097845 -0.000000
vn 0.000000 -1.000000 0.000000
vn 0.000000 -1.000000 0.000000
vn 0.000000 -1.000000 -0.000000
vn 0.000000 -1.000000 0.000000
vn 0.000000 -1.000000 0.000000
vn 0.000000 -1.000000 0.000000
vn 0.000000 -1.000000 0.000000
vn 0.000000 -1.000000 0.000000
vn 0.000000 -1.000000 0.000000
vn 0.000000 -1.000000 0.000000
vn 0.000000 -1.000000 0.000000
vn 0.000000 -1.000000 0.000000
vn 0.000000 -1.000000 -0.000000
vn 0.000000 -1.000000 -0.000000
vn 0.000000 -1.000000 0.000000
vn 0.000000 -1.000000 0.000000
vn 0.000000 -1.000000 0.000000
vn 0.000000 -1.000000 0.000000
vn 0.000000 -1.000000 0.000000
vn 0.000000 -1.000000 0.000000
vn 0.000000 -1.000000 0.000000
vn 0.000000 1.000000 0.000000
vn 0.000000 1.000000 0.000000
vn 0.000000 1.000000 0.000000
vn 0.000000 1.000000 0.000000
vn 0.000000 1.000000 0.000000
vn 0.000000 1.000000 0.000000
vn 0.000000 1.000000 0.000000
vn 0.000000 1.000000 0.000000
vn 0.000000 1.000000 0.000000
vn 0.000000 1.000000 0.000000
vn 0.000000 1.000000 0.000000
vn 0.000000 1.000000 0.000000
vn 0.000000 1.000000 0.000000
vn 0.000000 1.000000 0.000000
vn 0.000000 1.000000 0.000000
vn 0.000000 1.000000 0.000000
vn 0.000000 1.000000 0.000000
vn 0.000000 1.000000 0.000000
vn 0.000000 1.000000 0.000000
vn 0.000000 1.000000 0.000000
vn 0.000000 1.000000 0.000000
vn -0.944216 0.119727 0.306792
vn -0.803198 0.119727 0.583556
vn -0.796956 0.172033 0.579021
vn -0.936878 0.172033 0.304408
vn -0.992807 0.119727 0.000000
vn -0.985091 0.172033 0.000000
vn -0.944216 0.119727 -0.306792
vn -0.936878 0.172033 -0.304407
vn -0.803198 0.119727 -0.583556
vn -0.796956 0.172033 -0.579021
vn -0.583558 0.119727 -0.803197
vn -0.579023 0.172033 -0.796955
vn -0.306795 0.119727 -0.944215
vn -0.304411 0.172034 -0.936877
vn -0.000000 0.119727 -0.992807
vn -0.000000 0.172034 -0.985091
vn 0.306794 0.119728 -0.944216
vn 0.304410 0.172034 -0.936877
vn 0.583560 0.119728 -0.803196
vn 0.579024 0.172034 -0.796954
vn 0.803197 0.119727 -0.583557
vn 0.796955 0.172034 -0.579023
vn 0.944216 0.119727 -0.306792
vn 0.936878 0.172035 -0.304407
vn 0.992807 0.119727 0.000000
vn 0.985091 0.172035 0.000000
vn 0.944216 0.119727 0.306792
vn 0.936878 0.172035 0.304408
vn 0.803197 0.119727 0.583558
vn 0.796954 0.172034 0.579023
vn 0.583558 0.119728 0.803197
vn 0.579022 0.172034 0.796955
vn 0.306794 0.119728 0.944215
vn 0.304410 0.172034 0.936877
vn 0.000000 0.119727 0.992807
vn 0.000000 0.172034 0.985091
vn -0.306794 0.119728 0.944215
vn -0.304410 0.172034 0.936877
vn -0.583557 0.119728 0.803198
vn -0.579021 0.172034 0.796956
vn -0.950211 0.042172 0.308740
vn -0.808298 0.042173 0.587261
vn -0.999110 0.042172 -0.000000
vn -0.950211 0.042172 -0.308740
vn -0.808298 0.042173 -0.587261
vn -0.587263 0.042173 -0.808297
vn -0.308743 0.042173 -0.950210
vn 0.000000 0.042173 -0.999110
vn 0.308741 0.042173 -0.950211
vn 0.587264 0.042173 -0.808296
vn 0.808298 0.042172 -0.587261
vn 0.950211 0.042172 -0.308740
vn 0.999110 0.042171 0.000000
vn 0.950211 0.042172 0.308740
vn 0.808298 0.042172 0.587261
vn 0.587263 0.042173 0.808297
vn 0.308741 0.042173 0.950211
vn 0.000000 0.042172 0.999110
vn -0.308742 0.042173 0.950210
vn -0.587262 0.042173 0.808297
vn -0.808259 -0.043325 0.587232
vn -0.950164 -0.043325 0.308724
vn -0.999061 -0.043325 -0.000000
vn -0.950164 -0.043325 -0.308724
vn -0.808259 -0.043325 -0.587232
vn -0.587234 -0.043325 -0.808257
vn -0.308727 -0.043325 -0.950163
vn 0.000000 -0.043325 -0.999061
vn 0.308726 -0.043326 -0.950164
vn 0.587235 -0.043326 -0.808256
vn 0.808258 -0.043325 -0.587232
vn 0.950164 -0.043324 -0.308724
vn 0.999061 -0.043324 -0.000000
vn 0.950164 -0.043324 0.308724
vn 0.808258 -0.043325 0.587232
vn 0.587234 -0.043326 0.808257
vn 0.308726 -0.043326 0.950164
vn 0.000000 -0.043326 0.999061
vn -0.308726 -0.043326 0.950164
vn -0.587233 -0.043326 0.808258
vn 0.617123 0.760889 -0.200516
vn 0.524950 0.760895 -0.381400
vn 0.524949 0.760895 -0.381401
vn 0.617124 0.760889 -0.200515
vn 0.381400 0.760895 -0.524950
vn 0.381400 0.760895 -0.524950
vn 0.200513 0.760895 -0.617117
vn 0.200513 0.760895 -0.617117
vn 0.000000 0.760895 -0.648875
vn -0.000000 0.760895 -0.648875
vn -0.200513 0.760896 -0.617115
vn -0.200513 0.760896 -0.617115
vn -0.381399 0.760897 -0.524949
vn -0.381396 0.760897 -0.524951
vn -0.524951 0.760895 -0.381400
vn -0.524951 0.760895 -0.381399
vn -0.617118 0.760895 -0.200511
vn -0.617118 0.760895 -0.200511
vn -0.648875 0.760895 -0.000000
vn -0.648875 0.760895 -0.000000
vn -0.617118 0.760895 0.200511
vn -0.617118 0.760895 0.200511
vn -0.524950 0.760895 0.381399
vn -0.524951 0.760895 0.381399
vn -0.381398 0.760897 0.524949
vn -0.381395 0.760897 0.524951
vn -0.200514 0.760895 0.617116
vn -0.200513 0.760895 0.617117
vn 0.000000 0.760895 0.648875
vn 0.000000 0.760895 0.648875
vn 0.200514 0.760895 0.617117
vn 0.200513 0.760895 0.617117
vn 0.381398 0.760895 0.524951
vn 0.381399 0.760895 0.524951
vn 0.524950 0.760895 0.381400
vn 0.524949 0.760895 0.381402
vn 0.617123 0.760889 0.200516
vn 0.617123 0.760889 0.200515
vn 0.648889 0.760883 0.000000
vn 0.648889 0.760883 0.000000
vn 0.000000 1.000000 0.000000
vn 0.000000 1.000000 0.000000
vn 0.000000 1.000000 0.000000
vn 0.000000 1.000000 0.000000
vn 0.000000 1.000000 0.000000
vn 0.000000 1.000000 0.000000
vn 0.000000 1.000000 0.000000
vn 0.000000 1.000000 0.000000
vn 0.000000 1.000000 0.000000
vn 0.000000 1.000000 0.000000
vn 0.000000 1.000000 0.000000
vn 0.000000 1.000000 0.000000
vn 0.000000 1.000000 0.000000
vn 0.000000 1.000000 0.000000
vn 0.000000 1.000000 0.000000
vn 0.000000 1.000000 0.000000
vn 0.000000 1.000000 0.000000
vn 0.000000 1.000000 0.000000
vn 0.000000 1.000000 0.000000
vn 0.000000 1.000000 0.000000
s 1
g pCylinder1
usemtl phong11SG
f 1/1/1 2/2/2 93/99/3 94/100/4
f 2/2/2 3/5/5 92/98/6 93/99/3
f 3/5/5 4/43/7 91/97/8 92/98/6
f 4/43/7 5/42/9 90/95/10 91/97/8
f 5/8/9 6/10/11 89/94/12 90/96/10
f 6/10/11 7/12/13 88/93/14 89/94/12
f 7/12/13 8/14/15 87/92/16 88/93/14
f 8/14/15 9/16/17 86/91/18 87/92/16
f 9/16/17 10/18/19 85/90/20 86/91/18
f 10/18/19 11/20/21 84/89/22 85/90/20
f 11/20/21 12/22/23 83/88/24 84/89/22
f 12/22/23 13/24/25 102/108/26 83/88/24
f 13/24/25 14/26/27 101/107/28 102/108/26
f 14/26/27 15/28/29 100/106/30 101/107/28
f 15/28/29 16/30/31 99/105/32 100/106/30
f 16/30/31 17/32/33 98/104/34 99/105/32
f 17/32/33 18/34/35 97/103/36 98/104/34
f 18/34/35 19/36/37 96/102/38 97/103/36
f 19/36/37 20/38/39 95/101/40 96/102/38
f 20/38/39 1/1/1 94/100/4 95/101/40
s 2
f 2/2/41 1/1/42 41/40/43
f 3/5/44 2/2/41 41/40/43
f 4/43/45 3/5/44 41/40/43
f 5/42/46 4/43/45 41/40/43
f 6/10/47 5/8/46 41/40/43
f 7/12/48 6/10/47 41/40/43
f 8/14/49 7/12/48 41/40/43
f 9/16/50 8/14/49 41/40/43
f 10/18/51 9/16/50 41/40/43
f 11/20/52 10/18/51 41/40/43
f 12/22/53 11/20/52 41/40/43
f 13/24/54 12/22/53 41/40/43
f 14/26/55 13/24/54 41/40/43
f 15/28/56 14/26/55 41/40/43
f 16/30/57 15/28/56 41/40/43
f 17/32/58 16/30/57 41/40/43
f 18/34/59 17/32/58 41/40/43
f 19/36/60 18/34/59 41/40/43
f 20/38/61 19/36/60 41/40/43
f 1/1/42 20/38/61 41/40/43
s 3
f 21/4/62 22/3/63 42/41/64
f 22/3/63 23/6/65 42/41/64
f 23/6/65 24/7/66 42/41/64
f 24/7/66 25/44/67 42/45/64
f 25/9/67 26/11/68 42/41/64
f 26/11/68 27/13/69 42/41/64
f 27/13/69 28/15/70 42/41/64
f 28/15/70 29/17/71 42/41/64
f 29/17/71 30/19/72 42/41/64
f 30/19/72 31/21/73 42/41/64
f 31/21/73 32/23/74 42/41/64
f 32/23/74 33/25/75 42/41/64
f 33/25/75 34/27/76 42/41/64
f 34/27/76 35/29/77 42/41/64
f 35/29/77 36/31/78 42/41/64
f 36/31/78 37/33/79 42/41/64
f 37/33/79 38/35/80 42/41/64
f 38/35/80 39/37/81 42/41/64
f 39/37/81 40/39/82 42/41/64
f 40/39/82 21/4/62 42/41/64
s 1
f 44/47/83 43/46/84 32/23/85 31/21/86
f 45/48/87 44/47/83 31/21/86 30/19/88
f 46/49/89 45/48/87 30/19/88 29/17/90
f 47/50/91 46/49/89 29/17/90 28/15/92
f 48/51/93 47/50/91 28/15/92 27/13/94
f 49/52/95 48/51/93 27/13/94 26/11/96
f 50/54/97 49/52/95 26/11/96 25/9/98
f 51/55/99 50/53/97 25/44/98 24/7/100
f 52/56/101 51/55/99 24/7/100 23/6/102
f 53/57/103 52/56/101 23/6/102 22/3/104
f 54/58/105 53/57/103 22/3/104 21/4/106
f 55/59/107 54/58/105 21/4/106 40/39/108
f 56/60/109 55/59/107 40/39/108 39/37/110
f 57/61/111 56/60/109 39/37/110 38/35/112
f 58/62/113 57/61/111 38/35/112 37/33/114
f 59/63/115 58/62/113 37/33/114 36/31/116
f 60/64/117 59/63/115 36/31/116 35/29/118
f 61/65/119 60/64/117 35/29/118 34/27/120
f 62/66/121 61/65/119 34/27/120 33/25/122
f 43/46/84 62/66/121 33/25/122 32/23/85
f 64/68/123 63/67/124 43/46/84 44/47/83
f 65/69/125 64/68/123 44/47/83 45/48/87
f 66/70/126 65/69/125 45/48/87 46/49/89
f 67/71/127 66/70/126 46/49/89 47/50/91
f 68/72/128 67/71/127 47/50/91 48/51/93
f 69/73/129 68/72/128 48/51/93 49/52/95
f 70/75/130 69/73/129 49/52/95 50/54/97
f 71/76/131 70/74/130 50/53/97 51/55/99
f 72/77/132 71/76/131 51/55/99 52/56/101
f 73/78/133 72/77/132 52/56/101 53/57/103
f 74/79/134 73/78/133 53/57/103 54/58/105
f 75/80/135 74/79/134 54/58/105 55/59/107
f 76/81/136 75/80/135 55/59/107 56/60/109
f 77/82/137 76/81/136 56/60/109 57/61/111
f 78/83/138 77/82/137 57/61/111 58/62/113
f 79/84/139 78/83/138 58/62/113 59/63/115
f 80/85/140 79/84/139 59/63/115 60/64/117
f 81/86/141 80/85/140 60/64/117 61/65/119
f 82/87/142 81/86/141 61/65/119 62/66/121
f 63/67/124 82/87/142 62/66/121 43/46/84
f 84/89/22 83/88/24 103/109/143 104/110/144
f 85/90/20 84/89/22 104/110/144 105/111/145
f 86/91/18 85/90/20 105/111/145 106/112/146
f 87/92/16 86/91/18 106/112/146 107/113/147
f 88/93/14 87/92/16 107/113/147 108/114/148
f 89/94/12 88/93/14 108/114/148 109/115/149
f 90/96/10 89/94/12 109/115/149 110/117/150
f 91/97/8 90/95/10 110/116/150 111/118/151
f 92/98/6 91/97/8 111/118/151 112/119/152
f 93/99/3 92/98/6 112/119/152 113/120/153
f 94/100/4 93/99/3 113/120/153 114/121/154
f 95/101/40 94/100/4 114/121/154 115/122/155
f 96/102/38 95/101/40 115/122/155 116/123/156
f 97/103/36 96/102/38 116/123/156 117/124/157
f 98/104/34 97/103/36 117/124/157 118/125/158
f 99/105/32 98/104/34 118/125/158 119/126/159
f 100/106/30 99/105/32 119/126/159 120/127/160
f 101/107/28 100/106/30 120/127/160 121/128/161
f 102/108/26 101/107/28 121/128/161 122/129/162
f 83/88/24 102/108/26 122/129/162 103/109/143
f 104/110/144 103/109/143 63/67/124 64/68/123
f 105/111/145 104/110/144 64/68/123 65/69/125
f 106/112/146 105/111/145 65/69/125 66/70/126
f 107/113/147 106/112/146 66/70/126 67/71/127
f 108/114/148 107/113/147 67/71/127 68/72/128
f 109/115/149 108/114/148 68/72/128 69/73/129
f 110/117/150 109/115/149 69/73/129 70/75/130
f 111/118/151 110/116/150 70/74/130 71/76/131
f 112/119/152 111/118/151 71/76/131 72/77/132
f 113/120/153 112/119/152 72/77/132 73/78/133
f 114/121/154 113/120/153 73/78/133 74/79/134
f 115/122/155 114/121/154 74/79/134 75/80/135
f 116/123/156 115/122/155 75/80/135 76/81/136
f 117/124/157 116/123/156 76/81/136 77/82/137
f 118/125/158 117/124/157 77/82/137 78/83/138
f 119/126/159 118/125/158 78/83/138 79/84/139
f 120/127/160 119/126/159 79/84/139 80/85/140
f 121/128/161 120/127/160 80/85/140 81/86/141
f 122/129/162 121/128/161 81/86/141 82/87/142
f 103/109/143 122/129/162 82/87/142 63/67/124
s 5
f 21/130/163 22/131/164 124/132/165 123/133/166
f 22/134/164 23/135/167 125/136/168 124/137/165
f 23/138/167 24/139/169 126/140/170 125/141/168
f 24/142/169 25/143/171 127/144/172 126/145/170
f 25/146/171 26/147/173 128/148/174 127/149/172
f 26/150/173 27/151/175 129/152/176 128/153/174
f 27/154/175 28/155/177 130/156/178 129/157/176
f 28/158/177 29/159/179 131/160/180 130/161/178
f 29/162/179 30/163/181 132/164/182 131/165/180
f 30/166/181 31/167/183 133/168/184 132/169/182
f 31/170/183 32/171/185 134/172/186 133/173/184
f 32/174/185 33/175/187 135/176/188 134/177/186
f 33/178/187 34/179/189 136/180/190 135/181/188
f 34/182/189 35/183/191 137/184/192 136/185/190
f 35/186/191 36/187/193 138/188/194 137/189/192
f 36/190/193 37/191/195 139/192/196 138/193/194
f 37/194/195 38/195/197 140/196/198 139/197/196
f 38/198/197 39/199/199 141/200/200 140/201/198
f 39/202/199 40/203/201 142/204/202 141/205/200
f 40/206/201 21/207/163 123/208/166 142/209/202
s off
f 124/137/203 125/141/204 126/145/205 127/149/206 128/153/207 129/157/208 130/161/209 131/165/210 132/169/211 133/173/212 134/177/213 135/181/214 136/185/215 137/189/216 138/193/217 139/197/218 140/201/219 141/205/220 142/209/221 123/133/222
