# This file uses centimeters as units for non-parametric coordinates.

mtllib Broom.mtl
g default
v -0.189332 -0.020733 0.193552
v 0.319234 -0.020733 0.193552
v -0.142993 0.431101 0.193552
v 0.272895 0.431101 0.193552
v -0.142993 0.431101 0.140164
v 0.272895 0.431101 0.140164
v -0.189332 -0.020733 0.140164
v 0.319234 -0.020733 0.140164
v -0.198235 0.127680 0.193552
v -0.198235 0.127680 0.140164
v 0.328136 0.127680 0.140164
v 0.328136 0.127680 0.193552
v -0.183106 0.253700 0.193552
v -0.183106 0.253700 0.140164
v 0.313006 0.253700 0.140164
v 0.313006 0.253700 0.193552
v 0.096731 0.413647 0.158498
v 0.092889 0.413647 0.150956
v 0.086903 0.413647 0.144971
v 0.079362 0.413647 0.141127
v 0.071002 0.413647 0.139803
v 0.062641 0.413647 0.141127
v 0.055100 0.413647 0.144971
v 0.049114 0.413647 0.150956
v 0.045272 0.413647 0.158498
v 0.043947 0.413647 0.166858
v 0.045272 0.413647 0.175217
v 0.049114 0.413647 0.182760
v 0.055100 0.413647 0.188745
v 0.062641 0.413647 0.192587
v 0.071002 0.413647 0.193912
v 0.079362 0.413647 0.192587
v 0.086903 0.413647 0.188745
v 0.092889 0.413647 0.182760
v 0.096731 0.413647 0.175217
v 0.098056 0.413647 0.166858
v 0.096731 3.135107 0.158498
v 0.092889 3.135107 0.150956
v 0.086903 3.135107 0.144971
v 0.079362 3.135107 0.141127
v 0.071002 3.135107 0.139803
v 0.062641 3.135107 0.141127
v 0.055100 3.135107 0.144971
v 0.049114 3.135107 0.150956
v 0.045272 3.135107 0.158498
v 0.043947 3.135107 0.166858
v 0.045272 3.135107 0.175217
v 0.049114 3.135107 0.182760
v 0.055100 3.135107 0.188745
v 0.062641 3.135107 0.192587
v 0.071002 3.135107 0.193912
v 0.079362 3.135107 0.192587
v 0.086903 3.135107 0.188745
v 0.092889 3.135107 0.182760
v 0.096731 3.135107 0.175217
v 0.098056 3.135107 0.166858
v 0.071002 0.413647 0.166858
v 0.071002 3.156954 0.166858
v -0.185979 0.402330 0.222422
v 0.315880 0.402330 0.222422
v -0.185979 0.452319 0.222422
v 0.315880 0.452319 0.222422
v -0.185979 0.452319 0.111294
v 0.315880 0.452319 0.111294
v -0.185979 0.402330 0.111294
v 0.315880 0.402330 0.111294
vt 0.001879 0.001992
vt 0.331374 0.001992
vt 0.316035 0.110220
vt 0.017218 0.110220
vt 0.338475 0.001992
vt 0.574571 0.001992
vt 0.574571 0.331487
vt 0.338475 0.331487
vt 0.596472 0.223259
vt 0.895288 0.223259
vt 0.910628 0.331487
vt 0.581132 0.331487
vt 0.611859 0.335252
vt 0.941354 0.335252
vt 0.941354 0.664748
vt 0.611859 0.664748
vt 0.276576 0.335252
vt 0.606072 0.335252
vt 0.606072 0.443481
vt 0.276576 0.443481
vt 0.001879 0.998008
vt 0.001879 0.668513
vt 0.110107 0.668513
vt 0.110107 0.998008
vt 0.202007 0.668513
vt 0.202007 0.998008
vt 0.609497 0.131360
vt 0.882263 0.131360
vt 0.606072 0.535380
vt 0.276576 0.535380
vt 0.303010 0.202120
vt 0.030243 0.202120
vt 0.331374 0.668513
vt 0.331374 0.998008
vt 0.627832 0.001992
vt 0.863928 0.001992
vt 0.606072 0.664748
vt 0.276576 0.664748
vt 0.284675 0.331487
vt 0.048579 0.331487
vt 0.011636 0.001992
vt 0.014374 0.001992
vt 0.014374 0.990076
vt 0.011636 0.990076
vt 0.016547 0.001992
vt 0.016547 0.990076
vt 0.055621 0.990076
vt 0.052883 0.990076
vt 0.052883 0.001992
vt 0.055621 0.001992
vt 0.049848 0.990076
vt 0.049848 0.001992
vt 0.046813 0.990076
vt 0.046813 0.001992
vt 0.044075 0.990076
vt 0.044075 0.001992
vt 0.022455 0.001992
vt 0.024628 0.001992
vt 0.024628 0.990076
vt 0.022455 0.990076
vt 0.027366 0.001992
vt 0.027366 0.990076
vt 0.030401 0.001992
vt 0.030401 0.990076
vt 0.033437 0.001992
vt 0.033437 0.990076
vt 0.036175 0.001992
vt 0.036175 0.990076
vt 0.038348 0.001992
vt 0.038348 0.990076
vt 0.062091 0.001992
vt 0.064829 0.001992
vt 0.064829 0.990076
vt 0.062091 0.990076
vt 0.067865 0.001992
vt 0.067865 0.990076
vt 0.070900 0.001992
vt 0.070900 0.990076
vt 0.073638 0.001992
vt 0.073638 0.990076
vt 0.000654 0.001992
vt 0.002827 0.001992
vt 0.002827 0.990076
vt 0.000654 0.990076
vt 0.005566 0.001992
vt 0.005566 0.990076
vt 0.008601 0.001992
vt 0.008601 0.990076
vt 0.278739 0.003868
vt 0.281477 0.002473
vt 0.284513 0.011815
vt 0.276566 0.006041
vt 0.275171 0.008780
vt 0.274690 0.011815
vt 0.275171 0.014850
vt 0.276566 0.017588
vt 0.278739 0.019761
vt 0.281477 0.021157
vt 0.284513 0.021637
vt 0.287548 0.021157
vt 0.290287 0.019761
vt 0.292459 0.017588
vt 0.293855 0.014850
vt 0.294335 0.011815
vt 0.293855 0.008780
vt 0.292459 0.006041
vt 0.290287 0.003868
vt 0.287548 0.002473
vt 0.284513 0.001992
vt 0.008601 0.998008
vt 0.307489 0.001992
vt 0.309662 0.004165
vt 0.301715 0.009939
vt 0.311057 0.006904
vt 0.311538 0.009939
vt 0.311057 0.012974
vt 0.309662 0.015712
vt 0.307489 0.017885
vt 0.030401 0.998008
vt 0.321980 0.017885
vt 0.319806 0.015712
vt 0.327753 0.009939
vt 0.318411 0.012974
vt 0.317930 0.009939
vt 0.318411 0.006904
vt 0.319806 0.004165
vt 0.321980 0.001992
vt 0.080109 0.184202
vt 0.080109 0.001992
vt 0.098258 0.001992
vt 0.098258 0.184202
vt 0.105332 0.184202
vt 0.105332 0.001992
vt 0.145680 0.001992
vt 0.145680 0.184202
vt 0.152176 0.184202
vt 0.152176 0.001992
vt 0.170325 0.001992
vt 0.170325 0.184202
vt 0.177399 0.184202
vt 0.177399 0.001992
vt 0.217747 0.001992
vt 0.217747 0.184202
vt 0.224243 0.042340
vt 0.224243 0.001992
vt 0.242393 0.001992
vt 0.242393 0.042340
vt 0.249466 0.042340
vt 0.249466 0.001992
vt 0.267616 0.001992
vt 0.267616 0.042340
vn 0.000000 0.000000 1.000000
vn 0.000000 0.000000 1.000000
vn 0.000000 0.000000 1.000000
vn 0.000000 0.000000 1.000000
vn 0.000000 1.000000 0.000000
vn 0.000000 1.000000 0.000000
vn 0.000000 1.000000 0.000000
vn 0.000000 1.000000 0.000000
vn 0.000000 0.000000 -1.000000
vn 0.000000 0.000000 -1.000000
vn 0.000000 0.000000 -1.000000
vn 0.000000 0.000000 -1.000000
vn 0.000000 -1.000000 0.000000
vn 0.000000 -1.000000 0.000000
vn 0.000000 -1.000000 0.000000
vn 0.000000 -1.000000 0.000000
vn 0.998206 -0.059878 0.000000
vn 0.998206 -0.059878 0.000000
vn 0.999743 0.022682 0.000000
vn 0.999743 0.022682 0.000000
vn -0.998206 -0.059878 0.000000
vn -0.998206 -0.059878 0.000000
vn -0.999743 0.022682 0.000000
vn -0.999743 0.022682 0.000000
vn -0.999743 0.022682 0.000000
vn -0.999743 0.022682 0.000000
vn -0.983827 0.179119 0.000000
vn -0.983827 0.179119 0.000000
vn 0.000000 0.000000 -1.000000
vn 0.000000 0.000000 -1.000000
vn 0.000000 0.000000 -1.000000
vn 0.000000 0.000000 -1.000000
vn 0.999743 0.022682 0.000000
vn 0.999743 0.022682 0.000000
vn 0.983827 0.179119 0.000000
vn 0.983827 0.179119 0.000000
vn 0.000000 0.000000 1.000000
vn 0.000000 0.000000 1.000000
vn 0.000000 0.000000 1.000000
vn 0.000000 0.000000 1.000000
vn -0.983827 0.179119 0.000000
vn -0.983827 0.179119 0.000000
vn -0.975376 0.220547 0.000000
vn -0.975376 0.220547 0.000000
vn 0.000000 0.000000 -1.000000
vn 0.000000 0.000000 -1.000000
vn 0.000000 0.000000 -1.000000
vn 0.000000 0.000000 -1.000000
vn 0.983827 0.179119 0.000000
vn 0.983827 0.179119 0.000000
vn 0.975376 0.220547 0.000000
vn 0.975376 0.220547 0.000000
vn 0.000000 0.000000 1.000000
vn 0.000000 0.000000 1.000000
vn 0.000000 0.000000 1.000000
vn 0.000000 0.000000 1.000000
vn 0.951054 0.000000 -0.309024
vn 0.809000 0.000000 -0.587808
vn 0.809000 0.000000 -0.587808
vn 0.951054 0.000000 -0.309024
vn 0.809000 0.000000 -0.587808
vn 0.587789 0.000000 -0.809014
vn 0.587789 0.000000 -0.809014
vn 0.809000 0.000000 -0.587808
vn 0.587789 0.000000 -0.809014
vn 0.309025 0.000000 -0.951054
vn 0.309025 0.000000 -0.951054
vn 0.587789 0.000000 -0.809014
vn 0.309025 0.000000 -0.951054
vn 0.000000 0.000000 -1.000000
vn 0.000000 0.000000 -1.000000
vn 0.309025 0.000000 -0.951054
vn 0.000000 0.000000 -1.000000
vn -0.309025 0.000000 -0.951054
vn -0.309025 0.000000 -0.951054
vn 0.000000 0.000000 -1.000000
vn -0.309025 0.000000 -0.951054
vn -0.587789 0.000000 -0.809014
vn -0.587789 0.000000 -0.809014
vn -0.309025 0.000000 -0.951054
vn -0.587789 0.000000 -0.809014
vn -0.809000 0.000000 -0.587808
vn -0.809000 0.000000 -0.587808
vn -0.587789 0.000000 -0.809014
vn -0.809000 0.000000 -0.587808
vn -0.951054 0.000000 -0.309024
vn -0.951054 0.000000 -0.309024
vn -0.809000 0.000000 -0.587808
vn -0.951054 0.000000 -0.309024
vn -1.000000 0.000000 0.000000
vn -1.000000 0.000000 0.000000
vn -0.951054 0.000000 -0.309024
vn -1.000000 0.000000 0.000000
vn -0.951054 0.000000 0.309024
vn -0.951054 0.000000 0.309024
vn -1.000000 0.000000 0.000000
vn -0.951054 0.000000 0.309024
vn -0.809000 0.000000 0.587808
vn -0.809000 0.000000 0.587808
vn -0.951054 0.000000 0.309024
vn -0.809000 0.000000 0.587808
vn -0.587789 0.000000 0.809014
vn -0.587789 0.000000 0.809014
vn -0.809000 0.000000 0.587808
vn -0.587789 0.000000 0.809014
vn -0.309025 0.000000 0.951054
vn -0.309025 0.000000 0.951054
vn -0.587789 0.000000 0.809014
vn -0.309025 0.000000 0.951054
vn 0.000000 0.000000 1.000000
vn 0.000000 0.000000 1.000000
vn -0.309025 0.000000 0.951054
vn 0.000000 0.000000 1.000000
vn 0.309025 0.000000 0.951054
vn 0.309025 0.000000 0.951054
vn 0.000000 0.000000 1.000000
vn 0.309025 0.000000 0.951054
vn 0.587789 0.000000 0.809014
vn 0.587789 0.000000 0.809014
vn 0.309025 0.000000 0.951054
vn 0.587789 0.000000 0.809014
vn 0.809000 0.000000 0.587808
vn 0.809000 0.000000 0.587808
vn 0.587789 0.000000 0.809014
vn 0.809000 0.000000 0.587808
vn 0.951054 0.000000 0.309024
vn 0.951054 0.000000 0.309024
vn 0.809000 0.000000 0.587808
vn 0.951054 0.000000 0.309024
vn 1.000000 0.000000 0.000000
vn 1.000000 0.000000 0.000000
vn 0.951054 0.000000 0.309024
vn 1.000000 0.000000 0.000000
vn 0.951054 0.000000 -0.309024
vn 0.951054 0.000000 -0.309024
vn 1.000000 0.000000 0.000000
vn 0.000000 -1.000000 -0.000004
vn 0.000000 -1.000000 0.000000
vn 0.000000 -1.000000 0.000000
vn 0.000000 -1.000000 0.000000
vn 0.000000 -1.000000 -0.000004
vn 0.000000 -1.000000 0.000000
vn 0.000000 -1.000000 0.000000
vn 0.000000 -1.000000 0.000000
vn 0.000000 -1.000000 0.000000
vn 0.000000 -1.000000 0.000000
vn 0.000000 -1.000000 0.000000
vn 0.000000 -1.000000 0.000000
vn 0.000000 -1.000000 0.000000
vn 0.000000 -1.000000 0.000000
vn 0.000000 -1.000000 0.000000
vn 0.000000 -1.000000 0.000000
vn 0.000000 -1.000000 0.000000
vn 0.000000 -1.000000 0.000000
vn 0.000000 -1.000000 -0.000004
vn 0.000000 -1.000000 0.000000
vn 0.000000 -1.000000 0.000000
vn 0.000000 -1.000000 0.000000
vn 0.000000 -1.000000 -0.000004
vn 0.000000 -1.000000 0.000000
vn 0.000000 -1.000000 0.000000
vn 0.000000 -1.000000 0.000000
vn 0.000000 -1.000000 0.000000
vn 0.000000 -1.000000 0.000000
vn 0.000000 -1.000000 0.000000
vn 0.000000 -1.000000 0.000000
vn 0.000000 -1.000000 0.000004
vn 0.000000 -1.000000 0.000000
vn 0.000000 -1.000000 0.000000
vn 0.000000 -1.000000 0.000000
vn 0.000000 -1.000000 0.000004
vn 0.000000 -1.000000 0.000000
vn 0.000000 -1.000000 0.000000
vn 0.000000 -1.000000 0.000000
vn 0.000000 -1.000000 0.000000
vn 0.000000 -1.000000 0.000000
vn 0.000000 -1.000000 0.000000
vn 0.000000 -1.000000 0.000000
vn 0.000000 -1.000000 0.000000
vn 0.000000 -1.000000 0.000000
vn 0.000000 -1.000000 0.000000
vn 0.000000 -1.000000 0.000000
vn 0.000000 -1.000000 0.000000
vn 0.000000 -1.000000 0.000000
vn 0.000000 -1.000000 0.000004
vn 0.000000 -1.000000 0.000000
vn 0.000000 -1.000000 0.000000
vn 0.000000 -1.000000 0.000000
vn 0.000000 -1.000000 0.000004
vn 0.000000 -1.000000 0.000000
vn 0.000000 -1.000000 0.000000
vn 0.000000 -1.000000 0.000000
vn 0.000000 -1.000000 0.000000
vn 0.000000 -1.000000 0.000000
vn 0.000000 -1.000000 0.000000
vn 0.000000 -1.000000 0.000000
vn 0.597513 0.777997 -0.194161
vn 0.508273 0.777987 -0.369318
vn 0.000005 1.000000 -0.000003
vn 0.508273 0.777987 -0.369318
vn 0.369294 0.777965 -0.508323
vn 0.000005 1.000000 -0.000003
vn 0.369294 0.777965 -0.508323
vn 0.194173 0.777959 -0.597558
vn 0.000005 1.000000 -0.000003
vn 0.194173 0.777959 -0.597558
vn 0.000000 0.778001 -0.628263
vn 0.000005 1.000000 -0.000003
vn 0.000000 0.778001 -0.628263
vn -0.194135 0.778040 -0.597465
vn 0.000005 1.000000 -0.000003
vn -0.194135 0.778040 -0.597465
vn -0.369293 0.777991 -0.508285
vn 0.000005 1.000000 -0.000003
vn -0.369293 0.777991 -0.508285
vn -0.508303 0.777960 -0.369333
vn 0.000005 1.000000 -0.000003
vn -0.508303 0.777960 -0.369333
vn -0.597513 0.777997 -0.194161
vn 0.000005 1.000000 -0.000003
vn -0.597513 0.777997 -0.194161
vn -0.628252 0.778010 0.000000
vn 0.000005 1.000000 -0.000003
vn -0.628252 0.778010 0.000000
vn -0.597490 0.778018 0.194152
vn 0.000005 1.000000 -0.000003
vn -0.597490 0.778018 0.194152
vn -0.508262 0.777997 0.369312
vn 0.000005 1.000000 -0.000003
vn -0.508262 0.777997 0.369312
vn -0.369271 0.778006 0.508277
vn 0.000005 1.000000 -0.000003
vn -0.369271 0.778006 0.508277
vn -0.194150 0.778000 0.597513
vn 0.000005 1.000000 -0.000003
vn -0.194150 0.778000 0.597513
vn 0.000000 0.778001 0.628263
vn 0.000005 1.000000 -0.000003
vn 0.000000 0.778001 0.628263
vn 0.194158 0.778000 0.597511
vn 0.000005 1.000000 -0.000003
vn 0.194158 0.778000 0.597511
vn 0.369283 0.777991 0.508292
vn 0.000005 1.000000 -0.000003
vn 0.369283 0.777991 0.508292
vn 0.508264 0.778001 0.369300
vn 0.000005 1.000000 -0.000003
vn 0.508264 0.778001 0.369300
vn 0.597525 0.777987 0.194165
vn 0.000005 1.000000 -0.000003
vn 0.597525 0.777987 0.194165
vn 0.628277 0.777990 0.000000
vn 0.000005 1.000000 -0.000003
vn 0.628277 0.777990 0.000000
vn 0.597513 0.777997 -0.194161
vn 0.000005 1.000000 -0.000003
vn 0.000000 0.000000 1.000000
vn 0.000000 0.000000 1.000000
vn 0.000000 0.000000 1.000000
vn 0.000000 0.000000 1.000000
vn 0.000000 1.000000 0.000000
vn 0.000000 1.000000 0.000000
vn 0.000000 1.000000 0.000000
vn 0.000000 1.000000 0.000000
vn 0.000000 0.000000 -1.000000
vn 0.000000 0.000000 -1.000000
vn 0.000000 0.000000 -1.000000
vn 0.000000 0.000000 -1.000000
vn 0.000000 -1.000000 0.000000
vn 0.000000 -1.000000 0.000000
vn 0.000000 -1.000000 0.000000
vn 0.000000 -1.000000 0.000000
vn 1.000000 0.000000 0.000000
vn 1.000000 0.000000 0.000000
vn 1.000000 0.000000 0.000000
vn 1.000000 0.000000 0.000000
vn -1.000000 0.000000 0.000000
vn -1.000000 0.000000 0.000000
vn -1.000000 0.000000 0.000000
vn -1.000000 0.000000 0.000000
s off
g Broom:Broom
usemtl Broom:phong8SG
f 1/1/1 2/2/2 12/3/3 9/4/4
f 3/5/5 4/6/6 6/7/7 5/8/8
f 10/9/9 11/10/10 8/11/11 7/12/12
f 7/13/13 8/14/14 2/15/15 1/16/16
f 2/17/17 8/18/18 11/19/19 12/20/20
f 7/21/21 1/22/22 9/23/23 10/24/24
f 10/24/25 9/23/26 13/25/27 14/26/28
f 14/27/29 15/28/30 11/10/31 10/9/32
f 12/20/33 11/19/34 15/29/35 16/30/36
f 9/4/37 12/3/38 16/31/39 13/32/40
f 14/26/41 13/25/42 3/33/43 5/34/44
f 5/35/45 6/36/46 15/28/47 14/27/48
f 16/30/49 15/29/50 6/37/51 4/38/52
f 13/32/53 16/31/54 4/39/55 3/40/56
usemtl Broom:phong10SG
f 17/41/57 18/42/58 38/43/59 37/44/60
f 18/42/61 19/45/62 39/46/63 38/43/64
f 19/47/65 20/48/66 40/49/67 39/50/68
f 20/48/69 21/51/70 41/52/71 40/49/72
f 21/51/73 22/53/74 42/54/75 41/52/76
f 22/53/77 23/55/78 43/56/79 42/54/80
f 23/57/81 24/58/82 44/59/83 43/60/84
f 24/58/85 25/61/86 45/62/87 44/59/88
f 25/61/89 26/63/90 46/64/91 45/62/92
f 26/63/93 27/65/94 47/66/95 46/64/96
f 27/65/97 28/67/98 48/68/99 47/66/100
f 28/67/101 29/69/102 49/70/103 48/68/104
f 29/71/105 30/72/106 50/73/107 49/74/108
f 30/72/109 31/75/110 51/76/111 50/73/112
f 31/75/113 32/77/114 52/78/115 51/76/116
f 32/77/117 33/79/118 53/80/119 52/78/120
f 33/81/121 34/82/122 54/83/123 53/84/124
f 34/82/125 35/85/126 55/86/127 54/83/128
f 35/85/129 36/87/130 56/88/131 55/86/132
f 36/87/133 17/41/134 37/44/135 56/88/136
f 18/89/137 17/90/138 57/91/139
f 19/92/140 18/89/141 57/91/142
f 20/93/143 19/92/144 57/91/145
f 21/94/146 20/93/147 57/91/148
f 22/95/149 21/94/150 57/91/151
f 23/96/152 22/95/153 57/91/154
f 24/97/155 23/96/156 57/91/157
f 25/98/158 24/97/159 57/91/160
f 26/99/161 25/98/162 57/91/163
f 27/100/164 26/99/165 57/91/166
f 28/101/167 27/100/168 57/91/169
f 29/102/170 28/101/171 57/91/172
f 30/103/173 29/102/174 57/91/175
f 31/104/176 30/103/177 57/91/178
f 32/105/179 31/104/180 57/91/181
f 33/106/182 32/105/183 57/91/184
f 34/107/185 33/106/186 57/91/187
f 35/108/188 34/107/189 57/91/190
f 36/109/191 35/108/192 57/91/193
f 17/90/194 36/109/195 57/91/196
f 37/44/197 38/43/198 58/110/199
f 38/111/200 39/112/201 58/113/202
f 39/112/203 40/114/204 58/113/205
f 40/114/206 41/115/207 58/113/208
f 41/115/209 42/116/210 58/113/211
f 42/116/212 43/117/213 58/113/214
f 43/117/215 44/118/216 58/113/217
f 44/59/218 45/62/219 58/119/220
f 45/62/221 46/64/222 58/119/223
f 46/64/224 47/66/225 58/119/226
f 47/66/227 48/68/228 58/119/229
f 48/120/230 49/121/231 58/122/232
f 49/121/233 50/123/234 58/122/235
f 50/123/236 51/124/237 58/122/238
f 51/124/239 52/125/240 58/122/241
f 52/125/242 53/126/243 58/122/244
f 53/126/245 54/127/246 58/122/247
f 54/83/248 55/86/249 58/110/250
f 55/86/251 56/88/252 58/110/253
f 56/88/254 37/44/255 58/110/256
f 59/128/257 60/129/258 62/130/259 61/131/260
f 61/132/261 62/133/262 64/134/263 63/135/264
f 63/136/265 64/137/266 66/138/267 65/139/268
f 65/140/269 66/141/270 60/142/271 59/143/272
f 60/144/273 66/145/274 64/146/275 62/147/276
f 65/148/277 59/149/278 61/150/279 63/151/280
