# This file uses centimeters as units for non-parametric coordinates.

mtllib Broom.mtl
g default
v -14.655374 -0.020733 -2.362516
v -14.146808 -0.020733 -2.362516
v -14.609035 0.431101 -2.362516
v -14.193147 0.431101 -2.362516
v -14.609035 0.431101 -2.415904
v -14.193147 0.431101 -2.415904
v -14.655374 -0.020733 -2.415904
v -14.146808 -0.020733 -2.415904
v -14.664277 0.127680 -2.362516
v -14.664277 0.127680 -2.415904
v -14.137906 0.127680 -2.415904
v -14.137906 0.127680 -2.362516
v -14.649148 0.253700 -2.362516
v -14.649148 0.253700 -2.415904
v -14.153035 0.253700 -2.415904
v -14.153035 0.253700 -2.362516
v -14.369310 0.413647 -2.397570
v -14.373153 0.413647 -2.405112
v -14.379139 0.413647 -2.411097
v -14.386680 0.413647 -2.414940
v -14.395040 0.413647 -2.416264
v -14.403400 0.413647 -2.414940
v -14.410942 0.413647 -2.411097
v -14.416927 0.413647 -2.405112
v -14.420770 0.413647 -2.397570
v -14.422094 0.413647 -2.389210
v -14.420770 0.413647 -2.380850
v -14.416927 0.413647 -2.373308
v -14.410942 0.413647 -2.367323
v -14.403400 0.413647 -2.363480
v -14.395040 0.413647 -2.362156
v -14.386680 0.413647 -2.363480
v -14.379139 0.413647 -2.367323
v -14.373153 0.413647 -2.373308
v -14.369310 0.413647 -2.380850
v -14.367986 0.413647 -2.389210
v -14.369310 3.135107 -2.397570
v -14.373153 3.135107 -2.405112
v -14.379139 3.135107 -2.411097
v -14.386680 3.135107 -2.414940
v -14.395040 3.135107 -2.416264
v -14.403400 3.135107 -2.414940
v -14.410942 3.135107 -2.411097
v -14.416927 3.135107 -2.405112
v -14.420770 3.135107 -2.397570
v -14.422094 3.135107 -2.389210
v -14.420770 3.135107 -2.380850
v -14.416927 3.135107 -2.373308
v -14.410942 3.135107 -2.367323
v -14.403400 3.135107 -2.363480
v -14.395040 3.135107 -2.362156
v -14.386680 3.135107 -2.363480
v -14.379139 3.135107 -2.367323
v -14.373153 3.135107 -2.373308
v -14.369310 3.135107 -2.380850
v -14.367986 3.135107 -2.389210
v -14.395040 0.413647 -2.389210
v -14.395040 3.156954 -2.389210
v -14.652020 0.402330 -2.333645
v -14.150162 0.402330 -2.333645
v -14.652020 0.452319 -2.333645
v -14.150162 0.452319 -2.333645
v -14.652020 0.452319 -2.444774
v -14.150162 0.452319 -2.444774
v -14.652020 0.402330 -2.444774
v -14.150162 0.402330 -2.444774
vt 0.276576 0.335252
vt 0.606072 0.335252
vt 0.606072 0.664748
vt 0.276576 0.664748
vt 0.001879 0.998008
vt 0.001879 0.668513
vt 0.331374 0.668513
vt 0.331374 0.998008
vt 0.338475 0.001992
vt 0.574571 0.001992
vt 0.574571 0.331487
vt 0.338475 0.331487
vt 0.611859 0.335252
vt 0.941354 0.335252
vt 0.941354 0.664748
vt 0.611859 0.664748
vt 0.001879 0.001992
vt 0.331374 0.001992
vt 0.284675 0.331487
vt 0.048579 0.331487
vt 0.627832 0.001992
vt 0.863928 0.001992
vt 0.910628 0.331487
vt 0.581132 0.331487
vt 0.110107 0.668513
vt 0.017218 0.110220
vt 0.110107 0.998008
vt 0.596472 0.223259
vt 0.895288 0.223259
vt 0.606072 0.443481
vt 0.316035 0.110220
vt 0.276576 0.443481
vt 0.202007 0.668513
vt 0.030243 0.202120
vt 0.202007 0.998008
vt 0.609497 0.131360
vt 0.882263 0.131360
vt 0.606072 0.535380
vt 0.303010 0.202120
vt 0.276576 0.535380
vt 0.011636 0.001992
vt 0.014374 0.001992
vt 0.014374 0.990076
vt 0.011636 0.990076
vt 0.016547 0.001992
vt 0.016547 0.990076
vt 0.055621 0.990076
vt 0.052883 0.990076
vt 0.052883 0.001992
vt 0.055621 0.001992
vt 0.049848 0.990076
vt 0.049848 0.001992
vt 0.046813 0.990076
vt 0.046813 0.001992
vt 0.044075 0.990076
vt 0.044075 0.001992
vt 0.022455 0.001992
vt 0.024628 0.001992
vt 0.024628 0.990076
vt 0.022455 0.990076
vt 0.027366 0.001992
vt 0.027366 0.990076
vt 0.030401 0.001992
vt 0.030401 0.990076
vt 0.033437 0.001992
vt 0.033437 0.990076
vt 0.036175 0.001992
vt 0.036175 0.990076
vt 0.038348 0.001992
vt 0.038348 0.990076
vt 0.062091 0.001992
vt 0.064829 0.001992
vt 0.064829 0.990076
vt 0.062091 0.990076
vt 0.067865 0.001992
vt 0.067865 0.990076
vt 0.070900 0.001992
vt 0.070900 0.990076
vt 0.073638 0.001992
vt 0.073638 0.990076
vt 0.000654 0.001992
vt 0.002827 0.001992
vt 0.002827 0.990076
vt 0.000654 0.990076
vt 0.005566 0.001992
vt 0.005566 0.990076
vt 0.008601 0.001992
vt 0.008601 0.990076
vt 0.278739 0.003868
vt 0.281477 0.002473
vt 0.284513 0.011815
vt 0.276566 0.006041
vt 0.275171 0.008780
vt 0.274690 0.011815
vt 0.275171 0.014850
vt 0.276566 0.017588
vt 0.278739 0.019761
vt 0.281477 0.021157
vt 0.284513 0.021637
vt 0.287548 0.021157
vt 0.290287 0.019761
vt 0.292459 0.017588
vt 0.293855 0.014850
vt 0.294335 0.011815
vt 0.293855 0.008780
vt 0.292459 0.006041
vt 0.290287 0.003868
vt 0.287548 0.002473
vt 0.284513 0.001992
vt 0.008601 0.998008
vt 0.307489 0.001992
vt 0.309662 0.004165
vt 0.301715 0.009939
vt 0.311057 0.006904
vt 0.311538 0.009939
vt 0.311057 0.012974
vt 0.309662 0.015712
vt 0.307489 0.017885
vt 0.030401 0.998008
vt 0.321980 0.017885
vt 0.319806 0.015712
vt 0.327753 0.009939
vt 0.318411 0.012974
vt 0.317930 0.009939
vt 0.318411 0.006904
vt 0.319806 0.004165
vt 0.321980 0.001992
vt 0.080109 0.184202
vt 0.080109 0.001992
vt 0.098258 0.001992
vt 0.098258 0.184202
vt 0.105332 0.184202
vt 0.105332 0.001992
vt 0.145680 0.001992
vt 0.145680 0.184202
vt 0.152176 0.184202
vt 0.152176 0.001992
vt 0.170325 0.001992
vt 0.170325 0.184202
vt 0.177399 0.184202
vt 0.177399 0.001992
vt 0.217747 0.001992
vt 0.217747 0.184202
vt 0.224243 0.042340
vt 0.224243 0.001992
vt 0.242393 0.001992
vt 0.242393 0.042340
vt 0.249466 0.042340
vt 0.249466 0.001992
vt 0.267616 0.001992
vt 0.267616 0.042340
vn 0.000000 0.000000 1.000000
vn 0.000000 0.000000 1.000000
vn 0.000000 0.000000 1.000000
vn 0.000000 0.000000 1.000000
vn 0.000000 1.000000 0.000000
vn 0.000000 1.000000 0.000000
vn 0.000000 1.000000 0.000000
vn 0.000000 1.000000 0.000000
vn 0.000000 0.000000 -1.000000
vn 0.000000 0.000000 -1.000000
vn 0.000000 0.000000 -1.000000
vn 0.000000 0.000000 -1.000000
vn 0.000000 -1.000000 0.000000
vn 0.000000 -1.000000 0.000000
vn 0.000000 -1.000000 0.000000
vn 0.000000 -1.000000 0.000000
vn 0.998206 -0.059878 0.000000
vn 0.998206 -0.059878 0.000000
vn 0.999743 0.022682 0.000000
vn 0.999743 0.022682 0.000000
vn -0.998206 -0.059878 0.000000
vn -0.998206 -0.059878 0.000000
vn -0.999743 0.022682 0.000000
vn -0.999743 0.022682 0.000000
vn -0.983828 0.179119 0.000000
vn -0.983828 0.179119 0.000000
vn 0.000000 0.000000 -1.000000
vn 0.000000 0.000000 -1.000000
vn 0.983828 0.179119 0.000000
vn 0.983828 0.179119 0.000000
vn 0.000000 0.000000 1.000000
vn 0.000000 0.000000 1.000000
vn -0.975376 0.220547 0.000000
vn -0.975376 0.220547 0.000000
vn 0.000000 0.000000 -1.000000
vn 0.000000 0.000000 -1.000000
vn 0.975376 0.220547 0.000000
vn 0.975376 0.220547 0.000000
vn 0.000000 0.000000 1.000000
vn 0.000000 0.000000 1.000000
vn 0.951054 0.000000 -0.309024
vn 0.809000 0.000000 -0.587808
vn 0.809000 0.000000 -0.587808
vn 0.951054 0.000000 -0.309024
vn 0.587789 0.000000 -0.809014
vn 0.587789 0.000000 -0.809014
vn 0.309025 0.000000 -0.951054
vn 0.309025 0.000000 -0.951054
vn 0.000000 0.000000 -1.000000
vn 0.000000 0.000000 -1.000000
vn -0.309025 0.000000 -0.951054
vn -0.309025 0.000000 -0.951054
vn -0.587789 0.000000 -0.809014
vn -0.587789 0.000000 -0.809014
vn -0.809000 0.000000 -0.587808
vn -0.809000 0.000000 -0.587808
vn -0.951054 0.000000 -0.309024
vn -0.951054 0.000000 -0.309024
vn -1.000000 0.000000 0.000000
vn -1.000000 0.000000 0.000000
vn -0.951054 0.000000 0.309024
vn -0.951054 0.000000 0.309024
vn -0.809000 0.000000 0.587808
vn -0.809000 0.000000 0.587808
vn -0.587789 0.000000 0.809014
vn -0.587789 0.000000 0.809014
vn -0.309025 0.000000 0.951054
vn -0.309025 0.000000 0.951054
vn 0.000000 0.000000 1.000000
vn 0.000000 0.000000 1.000000
vn 0.309025 0.000000 0.951054
vn 0.309025 0.000000 0.951054
vn 0.587789 0.000000 0.809014
vn 0.587789 0.000000 0.809014
vn 0.809000 0.000000 0.587808
vn 0.809000 0.000000 0.587808
vn 0.951054 0.000000 0.309024
vn 0.951054 0.000000 0.309024
vn 1.000000 0.000000 0.000000
vn 1.000000 0.000000 0.000000
vn 0.000000 -1.000000 -0.000004
vn 0.000000 -1.000000 0.000000
vn 0.000000 -1.000000 0.000000
vn 0.000000 -1.000000 0.000000
vn 0.000000 -1.000000 0.000000
vn 0.000000 -1.000000 0.000000
vn 0.000000 -1.000000 0.000000
vn 0.000000 -1.000000 0.000000
vn 0.000000 -1.000000 -0.000004
vn 0.000000 -1.000000 0.000000
vn 0.000000 -1.000000 0.000000
vn 0.000000 -1.000000 -0.000000
vn 0.000000 -1.000000 0.000004
vn 0.000000 -1.000000 0.000000
vn 0.000000 -1.000000 0.000000
vn 0.000000 -1.000000 0.000000
vn 0.000000 -1.000000 0.000000
vn 0.000000 -1.000000 0.000000
vn 0.000000 -1.000000 0.000004
vn 0.000000 -1.000000 -0.000000
vn 0.000000 -1.000000 0.000000
vn 0.597513 0.777997 -0.194161
vn 0.508273 0.777987 -0.369318
vn 0.000005 1.000000 -0.000003
vn 0.369294 0.777965 -0.508323
vn 0.194173 0.777959 -0.597558
vn 0.000000 0.778001 -0.628263
vn -0.194135 0.778040 -0.597465
vn -0.369293 0.777991 -0.508285
vn -0.508303 0.777960 -0.369333
vn -0.597513 0.777997 -0.194161
vn -0.628252 0.778010 0.000000
vn -0.597490 0.778018 0.194152
vn -0.508262 0.777997 0.369312
vn -0.369271 0.778006 0.508277
vn -0.194150 0.778000 0.597513
vn 0.000000 0.778001 0.628263
vn 0.194158 0.778000 0.597511
vn 0.369283 0.777991 0.508292
vn 0.508264 0.778001 0.369300
vn 0.597525 0.777987 0.194165
vn 0.628277 0.777990 0.000000
vn 0.000000 0.000000 1.000000
vn 0.000000 0.000000 1.000000
vn 0.000000 0.000000 1.000000
vn 0.000000 0.000000 1.000000
vn 0.000000 1.000000 0.000000
vn 0.000000 1.000000 0.000000
vn 0.000000 1.000000 0.000000
vn 0.000000 1.000000 0.000000
vn 0.000000 0.000000 -1.000000
vn 0.000000 0.000000 -1.000000
vn 0.000000 0.000000 -1.000000
vn 0.000000 0.000000 -1.000000
vn 0.000000 -1.000000 0.000000
vn 0.000000 -1.000000 0.000000
vn 0.000000 -1.000000 0.000000
vn 0.000000 -1.000000 0.000000
vn 1.000000 0.000000 0.000000
vn 1.000000 0.000000 0.000000
vn 1.000000 0.000000 0.000000
vn 1.000000 0.000000 0.000000
vn -1.000000 0.000000 0.000000
vn -1.000000 0.000000 0.000000
vn -1.000000 0.000000 0.000000
vn -1.000000 0.000000 0.000000
s 1
g Broom
usemtl phong8SG
f 1/17/1 2/18/2 12/31/3 9/26/4
s off
f 3/9/5 4/10/6 6/11/7 5/12/8
s 2
f 10/28/9 11/29/10 8/23/11 7/24/12
s off
f 7/13/13 8/14/14 2/15/15 1/16/16
s 3
f 2/1/17 8/2/18 11/30/19 12/32/20
s 4
f 7/5/21 1/6/22 9/25/23 10/27/24
f 10/27/24 9/25/23 13/33/25 14/35/26
s 2
f 14/36/27 15/37/28 11/29/10 10/28/9
s 3
f 12/32/20 11/30/19 15/38/29 16/40/30
s 1
f 9/26/4 12/31/3 16/39/31 13/34/32
s 4
f 14/35/26 13/33/25 3/7/33 5/8/34
s 2
f 5/21/35 6/22/36 15/37/28 14/36/27
s 3
f 16/40/30 15/38/29 6/3/37 4/4/38
s 1
f 13/34/32 16/39/31 4/19/39 3/20/40
s 5
usemtl phong10SG
f 17/41/41 18/42/42 38/43/43 37/44/44
f 18/42/42 19/45/45 39/46/46 38/43/43
f 19/47/45 20/48/47 40/49/48 39/50/46
f 20/48/47 21/51/49 41/52/50 40/49/48
f 21/51/49 22/53/51 42/54/52 41/52/50
f 22/53/51 23/55/53 43/56/54 42/54/52
f 23/57/53 24/58/55 44/59/56 43/60/54
f 24/58/55 25/61/57 45/62/58 44/59/56
f 25/61/57 26/63/59 46/64/60 45/62/58
f 26/63/59 27/65/61 47/66/62 46/64/60
f 27/65/61 28/67/63 48/68/64 47/66/62
f 28/67/63 29/69/65 49/70/66 48/68/64
f 29/71/65 30/72/67 50/73/68 49/74/66
f 30/72/67 31/75/69 51/76/70 50/73/68
f 31/75/69 32/77/71 52/78/72 51/76/70
f 32/77/71 33/79/73 53/80/74 52/78/72
f 33/81/73 34/82/75 54/83/76 53/84/74
f 34/82/75 35/85/77 55/86/78 54/83/76
f 35/85/77 36/87/79 56/88/80 55/86/78
f 36/87/79 17/41/41 37/44/44 56/88/80
s 6
f 18/89/81 17/90/82 57/91/83
f 19/92/84 18/89/81 57/91/83
f 20/93/85 19/92/84 57/91/83
f 21/94/86 20/93/85 57/91/83
f 22/95/87 21/94/86 57/91/83
f 23/96/88 22/95/87 57/91/83
f 24/97/89 23/96/88 57/91/83
f 25/98/90 24/97/89 57/91/83
f 26/99/91 25/98/90 57/91/83
f 27/100/92 26/99/91 57/91/83
f 28/101/93 27/100/92 57/91/83
f 29/102/94 28/101/93 57/91/83
f 30/103/95 29/102/94 57/91/83
f 31/104/96 30/103/95 57/91/83
f 32/105/97 31/104/96 57/91/83
f 33/106/98 32/105/97 57/91/83
f 34/107/99 33/106/98 57/91/83
f 35/108/100 34/107/99 57/91/83
f 36/109/101 35/108/100 57/91/83
f 17/90/82 36/109/101 57/91/83
s 7
f 37/44/102 38/43/103 58/110/104
f 38/111/103 39/112/105 58/113/104
f 39/112/105 40/114/106 58/113/104
f 40/114/106 41/115/107 58/113/104
f 41/115/107 42/116/108 58/113/104
f 42/116/108 43/117/109 58/113/104
f 43/117/109 44/118/110 58/113/104
f 44/59/110 45/62/111 58/119/104
f 45/62/111 46/64/112 58/119/104
f 46/64/112 47/66/113 58/119/104
f 47/66/113 48/68/114 58/119/104
f 48/120/114 49/121/115 58/122/104
f 49/121/115 50/123/116 58/122/104
f 50/123/116 51/124/117 58/122/104
f 51/124/117 52/125/118 58/122/104
f 52/125/118 53/126/119 58/122/104
f 53/126/119 54/127/120 58/122/104
f 54/83/120 55/86/121 58/110/104
f 55/86/121 56/88/122 58/110/104
f 56/88/122 37/44/102 58/110/104
s off
f 59/128/123 60/129/124 62/130/125 61/131/126
f 61/132/127 62/133/128 64/134/129 63/135/130
f 63/136/131 64/137/132 66/138/133 65/139/134
f 65/140/135 66/141/136 60/142/137 59/143/138
f 60/144/139 66/145/140 64/146/141 62/147/142
f 65/148/143 59/149/144 61/150/145 63/151/146
