# This file uses centimeters as units for non-parametric coordinates.

mtllib Door.mtl
g default
v -0.891490 0.012982 0.092821
v 0.918186 0.012982 0.092821
v -0.891490 3.422453 0.092821
v 0.918186 3.422453 0.092821
v -0.891490 3.422453 0.009094
v 0.918186 3.422453 0.009094
v -0.891490 0.012982 0.009094
v 0.918186 0.012982 0.009094
vt 0.001992 0.001992
vt 0.998008 0.001992
vt 0.998008 0.998008
vt 0.001992 0.998008
vt 0.338705 0.001992
vt 0.668185 0.001992
vt 0.668185 0.331472
vt 0.338705 0.331472
vt 0.617659 0.335260
vt 0.947139 0.335260
vt 0.947139 0.664740
vt 0.617659 0.664740
vt 0.282356 0.335260
vt 0.611836 0.335260
vt 0.611836 0.664740
vt 0.282356 0.664740
vt 0.001890 0.668528
vt 0.331370 0.668528
vt 0.331370 0.998008
vt 0.001890 0.998008
vt 0.338705 0.668528
vt 0.668185 0.668528
vt 0.668185 0.998008
vt 0.338705 0.998008
vn 0.000000 0.000000 1.000000
vn 0.000000 0.000000 1.000000
vn 0.000000 0.000000 1.000000
vn 0.000000 0.000000 1.000000
vn 0.000000 1.000000 0.000000
vn 0.000000 1.000000 0.000000
vn 0.000000 1.000000 0.000000
vn 0.000000 1.000000 0.000000
vn 0.000000 0.000000 -1.000000
vn 0.000000 0.000000 -1.000000
vn 0.000000 0.000000 -1.000000
vn 0.000000 0.000000 -1.000000
vn 0.000000 -1.000000 0.000000
vn 0.000000 -1.000000 0.000000
vn 0.000000 -1.000000 0.000000
vn 0.000000 -1.000000 0.000000
vn 1.000000 0.000000 0.000000
vn 1.000000 0.000000 0.000000
vn 1.000000 0.000000 0.000000
vn 1.000000 0.000000 0.000000
vn -1.000000 0.000000 0.000000
vn -1.000000 0.000000 0.000000
vn -1.000000 0.000000 0.000000
vn -1.000000 0.000000 0.000000
s off
g Door:Door
usemtl Door:phong7SG
f 1/1/1 2/2/2 4/3/3 3/4/4
f 3/5/5 4/6/6 6/7/7 5/8/8
f 5/9/9 6/10/10 8/11/11 7/12/12
f 7/13/13 8/14/14 2/15/15 1/16/16
f 2/17/17 8/18/18 6/19/19 4/20/20
f 7/21/21 1/22/22 3/23/23 5/24/24
