# This file uses centimeters as units for non-parametric coordinates.

mtllib Key_Mangled.mtl
g default
v 0.624220 1.362325 -0.491304
v 0.345309 1.320437 -0.708592
v -0.001994 1.305605 -0.785534
v -0.348903 1.320765 -0.706893
v -0.626707 1.362916 -0.488242
v -0.780384 1.423706 -0.172888
v -0.779496 1.491100 0.176708
v -0.624219 1.551746 0.491305
v -0.345309 1.593634 0.708592
v 0.001995 1.608466 0.785536
v 0.348903 1.593306 0.706893
v 0.626707 1.551156 0.488242
v 0.780384 1.490364 0.172889
v 0.779496 1.422971 -0.176707
v 0.682976 1.506950 -0.567147
v 0.377812 1.461119 -0.804888
v -0.002182 1.444890 -0.889073
v -0.381744 1.461477 -0.803028
v -0.685697 1.507595 -0.563797
v -0.853839 1.574108 -0.218760
v -0.852868 1.647845 0.163742
v -0.682976 1.714200 0.507951
v -0.377812 1.760030 0.745692
v 0.002182 1.776260 0.829876
v 0.381744 1.759672 0.743833
v 0.685697 1.713554 0.504600
v 0.853839 1.647040 0.159564
v 0.852868 1.573303 -0.222938
v 0.815000 1.524840 -0.678370
v 0.450846 1.470150 -0.962068
v -0.002604 1.450783 -1.062526
v -0.455538 1.470578 -0.959849
v -0.818247 1.525610 -0.674372
v -1.018893 1.604981 -0.262637
v -1.017734 1.692972 0.193806
v -0.815000 1.772153 0.604554
v -0.450846 1.826843 0.888251
v 0.002604 1.846210 0.988708
v 0.455538 1.826416 0.886032
v 0.818247 1.771383 0.600555
v 1.018893 1.692011 0.188819
v 1.017734 1.604021 -0.267622
v 0.920875 1.402522 -0.741218
v 0.509414 1.340729 -1.061770
v -0.002942 1.318846 -1.175279
v -0.514716 1.341212 -1.059263
v -0.924544 1.403394 -0.736700
v -1.151255 1.493076 -0.271478
v -1.149945 1.592498 0.244260
v -0.920875 1.681966 0.708367
v -0.509414 1.743759 1.028918
v 0.002942 1.765641 1.142427
v 0.514716 1.743277 1.026411
v 0.924544 1.681094 0.703849
v 1.151255 1.591411 0.238626
v 1.149945 1.491990 -0.277112
v 0.920875 1.232106 -0.708366
v 0.509414 1.170312 -1.028918
v -0.002942 1.148430 -1.142427
v -0.514716 1.170794 -1.026411
v -0.924544 1.232977 -0.703848
v -1.151255 1.322659 -0.238625
v -1.149945 1.422081 0.277113
v -0.920875 1.511549 0.741219
v -0.509414 1.573343 1.061771
v 0.002942 1.595225 1.175279
v 0.514716 1.572860 1.059264
v 0.924544 1.510678 0.736701
v 1.151255 1.420995 0.271479
v 1.149945 1.321573 -0.244260
v 0.815000 1.141918 -0.604553
v 0.450846 1.087228 -0.888250
v -0.002604 1.067862 -0.988708
v -0.455538 1.087655 -0.886031
v -0.818247 1.142689 -0.600554
v -1.018893 1.222059 -0.188819
v -1.017734 1.310050 0.267623
v -0.815000 1.389232 0.678371
v -0.450846 1.443921 0.962069
v 0.002604 1.463288 1.062527
v 0.455538 1.443493 0.959850
v 0.818247 1.388461 0.674372
v 1.018893 1.309089 0.262637
v 1.017734 1.221099 -0.193805
v 0.682976 1.199871 -0.507951
v 0.377812 1.154040 -0.745691
v -0.002182 1.137812 -0.829876
v -0.381744 1.154399 -0.743831
v -0.685697 1.200517 -0.504600
v -0.853839 1.267030 -0.159563
v -0.852868 1.340767 0.222939
v -0.682976 1.407122 0.567148
v -0.377812 1.452952 0.804889
v 0.002182 1.469181 0.889074
v 0.381744 1.452594 0.803030
v 0.685697 1.406476 0.563797
v 0.853839 1.339962 0.218761
v 0.852868 1.266225 -0.163741
v 5.648110 -1.324195 0.096336
v 5.646801 -1.324195 -0.222214
v 5.648110 -1.497749 0.096336
v 5.646801 -1.497749 -0.222214
v 5.494829 -1.324195 0.247994
v 5.493518 -1.324195 -0.277240
v 5.493518 -1.497749 -0.277240
v 5.494829 -1.497749 0.247994
v 4.883244 -1.324195 0.249519
v 4.881935 -1.324195 -0.275715
v 4.881935 -1.497749 -0.275715
v 4.883244 -1.497749 0.249519
v 5.013525 -1.324195 0.249194
v 5.012216 -1.324195 -0.276040
v 5.012216 -1.497749 -0.276040
v 5.013525 -1.497749 0.249194
v 5.496976 -0.479753 1.110169
v 5.496976 -0.306199 1.110169
v 5.650259 -0.479753 1.109786
v 5.650259 -0.306199 1.109786
v 4.885394 -0.410493 1.111694
v 4.885394 -0.236939 1.111694
v 5.015675 -0.410493 1.111369
v 5.015675 -0.236939 1.111369
v 6.016644 -1.324195 0.095416
v 6.015335 -1.324195 -0.223133
v 6.016644 -1.497749 0.095416
v 6.015335 -1.497749 -0.223133
v 2.839221 2.258645 0.243553
v 2.837911 2.204192 -0.276480
v 2.837911 2.032356 -0.258487
v 2.839221 2.086809 0.261546
v 4.000893 1.605234 0.246944
v 3.999583 1.581728 -0.276045
v 3.999583 1.408916 -0.268278
v 4.000893 1.432422 0.254711
vt 0.152109 0.769579
vt 0.152109 0.724589
vt 0.172376 0.720355
vt 0.172376 0.769579
vt 0.131842 0.769579
vt 0.131842 0.720355
vt 0.152109 0.688511
vt 0.172376 0.680880
vt 0.152109 0.814569
vt 0.172376 0.818804
vt 0.131842 0.680880
vt 0.131842 0.818804
vt 0.152109 0.850648
vt 0.172376 0.858279
vt 0.131842 0.858279
vt 0.198310 0.769579
vt 0.198310 0.724589
vt 0.218577 0.720355
vt 0.218577 0.769579
vt 0.178043 0.769579
vt 0.178043 0.720355
vt 0.198310 0.688510
vt 0.218577 0.680880
vt 0.198310 0.814569
vt 0.218577 0.818804
vt 0.178043 0.680880
vt 0.178043 0.818804
vt 0.198310 0.850648
vt 0.218577 0.858279
vt 0.178043 0.858279
vt 0.345138 0.800476
vt 0.345138 0.866847
vt 0.322643 0.866847
vt 0.322643 0.800476
vt 0.359163 0.800476
vt 0.359163 0.859216
vt 0.345138 0.920072
vt 0.322643 0.920072
vt 0.308618 0.859216
vt 0.308618 0.800476
vt 0.345138 0.734105
vt 0.322643 0.734105
vt 0.359163 0.741736
vt 0.308618 0.741736
vt 0.345138 0.680880
vt 0.322643 0.680880
vt 0.168522 0.861965
vt 0.168522 0.902234
vt 0.146027 0.902234
vt 0.146027 0.861965
vt 0.260764 0.734105
vt 0.260764 0.800476
vt 0.238269 0.800476
vt 0.238269 0.734105
vt 0.274789 0.741736
vt 0.274789 0.800476
vt 0.224244 0.800476
vt 0.224244 0.741736
vt 0.260764 0.680880
vt 0.238269 0.680880
vt 0.274789 0.859216
vt 0.260764 0.866847
vt 0.238269 0.866847
vt 0.224244 0.859216
vt 0.024335 0.998008
vt 0.001840 0.998008
vt 0.001840 0.889060
vt 0.024335 0.889060
vt 0.011279 0.757321
vt 0.033773 0.757321
vt 0.033773 0.885373
vt 0.011279 0.885373
vt 0.053316 0.998008
vt 0.030821 0.998008
vt 0.030821 0.889060
vt 0.053316 0.889060
vt 0.059623 0.826037
vt 0.082117 0.826037
vt 0.082117 0.934985
vt 0.059623 0.934985
vt 0.854693 0.918713
vt 0.886173 0.879238
vt 0.905932 0.888753
vt 0.868366 0.935859
vt 0.897408 0.830014
vt 0.919339 0.830014
vt 0.921778 0.896384
vt 0.879332 0.949610
vt 0.809202 0.940620
vt 0.814083 0.962001
vt 0.886173 0.780789
vt 0.905932 0.771274
vt 0.817996 0.979147
vt 0.758712 0.940620
vt 0.753832 0.962001
vt 0.854693 0.741314
vt 0.868366 0.724168
vt 0.749919 0.979147
vt 0.713222 0.918713
vt 0.699548 0.935859
vt 0.809202 0.719407
vt 0.814083 0.698026
vt 0.879332 0.710418
vt 0.921778 0.763643
vt 0.688583 0.949610
vt 0.681742 0.879238
vt 0.661983 0.888753
vt 0.758712 0.719407
vt 0.753832 0.698026
vt 0.817996 0.680880
vt 0.646137 0.896384
vt 0.670506 0.830014
vt 0.648576 0.830014
vt 0.713222 0.741314
vt 0.699548 0.724168
vt 0.749918 0.680880
vt 0.681742 0.780789
vt 0.661983 0.771274
vt 0.688583 0.710418
vt 0.646137 0.763643
vt 0.598025 0.710418
vt 0.640470 0.763643
vt 0.624625 0.771274
vt 0.587059 0.724168
vt 0.604866 0.780789
vt 0.573386 0.741314
vt 0.536689 0.680880
vt 0.532775 0.698026
vt 0.638032 0.830014
vt 0.616101 0.830014
vt 0.527895 0.719407
vt 0.468611 0.680880
vt 0.472525 0.698026
vt 0.624625 0.888754
vt 0.604866 0.879238
vt 0.477405 0.719407
vt 0.407275 0.710418
vt 0.418241 0.724168
vt 0.587059 0.935859
vt 0.573386 0.918713
vt 0.431915 0.741314
vt 0.364830 0.763643
vt 0.380675 0.771274
vt 0.640470 0.896384
vt 0.598025 0.949610
vt 0.532775 0.962001
vt 0.527895 0.940620
vt 0.400434 0.780789
vt 0.536689 0.979147
vt 0.472525 0.962001
vt 0.477405 0.940620
vt 0.367268 0.830014
vt 0.389199 0.830014
vt 0.468611 0.979147
vt 0.418241 0.935859
vt 0.431915 0.918713
vt 0.380675 0.888754
vt 0.400434 0.879238
vt 0.407275 0.949610
vt 0.364830 0.896384
vt 0.346532 0.662045
vt 0.280161 0.677193
vt 0.161829 0.158746
vt 0.228200 0.143598
vt 0.158072 0.142283
vt 0.224443 0.127135
vt 0.052881 0.183613
vt 0.049124 0.167150
vt 0.144190 0.081464
vt 0.210561 0.066315
vt 0.158874 0.057684
vt 0.199142 0.048561
vt 0.035242 0.106331
vt 0.030821 0.086961
vt 0.148245 0.011114
vt 0.188513 0.001992
vt 0.419408 0.677193
vt 0.353037 0.662045
vt 0.471369 0.143598
vt 0.537740 0.158746
vt 0.475126 0.127135
vt 0.541497 0.142283
vt 0.489008 0.066315
vt 0.555379 0.081464
vt 0.650445 0.167150
vt 0.646688 0.183613
vt 0.500427 0.048561
vt 0.540695 0.057684
vt 0.511056 0.001992
vt 0.551324 0.011114
vt 0.668748 0.086961
vt 0.664327 0.106331
vt 0.105908 0.728542
vt 0.105908 0.686965
vt 0.126175 0.680880
vt 0.126175 0.726370
vt 0.085641 0.726370
vt 0.085641 0.680880
vt 0.105908 0.774689
vt 0.126175 0.776860
vt 0.085641 0.776860
vt 0.105908 0.816265
vt 0.126175 0.822351
vt 0.085641 0.822351
vt 0.059707 0.774689
vt 0.059707 0.816265
vt 0.039440 0.822351
vt 0.039440 0.776860
vt 0.079974 0.776860
vt 0.079974 0.822351
vt 0.059707 0.728542
vt 0.039440 0.726370
vt 0.079974 0.726370
vt 0.059707 0.686965
vt 0.039440 0.680880
vt 0.079974 0.680880
vt 0.280456 0.742215
vt 0.280456 0.680880
vt 0.302951 0.680880
vt 0.302951 0.742215
vt 0.280456 0.810293
vt 0.302951 0.810293
vt 0.280456 0.871629
vt 0.302951 0.871629
vt 0.024335 0.692298
vt 0.024335 0.753634
vt 0.001840 0.753634
vt 0.001840 0.692298
vt 0.024335 0.624221
vt 0.001840 0.624221
vt 0.024335 0.562885
vt 0.001840 0.562885
vt 0.024335 0.520439
vt 0.001840 0.520439
vt 0.001840 0.001992
vt 0.024335 0.001992
vt 0.697747 0.662045
vt 0.675252 0.662045
vt 0.675252 0.143598
vt 0.697747 0.143598
vt 0.675252 0.127135
vt 0.697747 0.127135
vt 0.675252 0.066315
vt 0.697747 0.066315
vt 0.675252 0.048562
vt 0.697747 0.048562
vt 0.675252 0.001992
vt 0.697747 0.001992
vt 0.174828 0.884460
vt 0.174828 0.861965
vt 0.194198 0.861965
vt 0.194198 0.884460
vt 0.200029 0.884460
vt 0.200029 0.861965
vt 0.216492 0.861965
vt 0.216492 0.884460
vt 0.110919 0.886857
vt 0.088424 0.886857
vt 0.088424 0.826037
vt 0.110919 0.826037
vt 0.139720 0.908535
vt 0.117225 0.908535
vt 0.117225 0.861965
vt 0.139720 0.861965
vt 0.226640 0.442701
vt 0.024335 0.285947
vt 0.293011 0.427553
vt 0.675252 0.427553
vt 0.406558 0.427553
vt 0.697747 0.427553
vt 0.001840 0.285947
vt 0.472929 0.442701
vt 0.189806 0.281322
vt 0.024335 0.124568
vt 0.256177 0.266174
vt 0.675252 0.266174
vt 0.443392 0.266174
vt 0.697747 0.266174
vt 0.001840 0.124568
vt 0.509763 0.281322
vn -0.431630 0.000000 0.902051
vn -0.780282 0.000000 0.625428
vn -0.483638 0.784741 0.387655
vn -0.267532 0.784742 0.559113
vn 0.002472 0.000000 0.999997
vn 0.001526 0.784744 0.619818
vn 0.436119 0.000000 0.899889
vn 0.270310 0.784744 0.557772
vn 0.783396 0.000000 0.621523
vn 0.485561 0.784741 0.385244
vn 0.975483 0.000000 0.220074
vn 0.604620 0.784745 0.136422
vn 0.974376 0.000000 -0.224924
vn 0.603944 0.784740 -0.139412
vn 0.780282 0.000000 -0.625428
vn 0.483638 0.784741 -0.387655
vn 0.431630 0.000000 -0.902051
vn 0.267532 0.784742 -0.559113
vn -0.002472 0.000000 -0.999997
vn -0.001526 0.784744 -0.619818
vn -0.436119 0.000000 -0.899889
vn -0.270310 0.784744 -0.557772
vn -0.783396 0.000000 -0.621523
vn -0.485561 0.784741 -0.385244
vn -0.975483 0.000000 -0.220074
vn -0.604620 0.784745 -0.136422
vn -0.974376 0.000000 0.224924
vn -0.603944 0.784740 0.139412
vn 0.172007 0.975398 -0.137886
vn 0.095159 0.975396 -0.198864
vn -0.000549 0.975394 -0.220471
vn -0.096136 0.975400 -0.198376
vn -0.172708 0.975394 -0.137031
vn -0.215040 0.975401 -0.048495
vn -0.214795 0.975399 0.049594
vn -0.172007 0.975398 0.137886
vn -0.095159 0.975396 0.198864
vn 0.000549 0.975394 0.220471
vn 0.096136 0.975400 0.198376
vn 0.172708 0.975394 0.137031
vn 0.215040 0.975401 0.048495
vn 0.214795 0.975399 -0.049594
vn 0.701748 0.437212 -0.562491
vn 0.388177 0.437222 -0.811268
vn -0.002228 0.437211 -0.899356
vn -0.392236 0.437221 -0.809314
vn -0.704536 0.437218 -0.558990
vn -0.877307 0.437219 -0.197918
vn -0.876303 0.437221 0.202313
vn -0.701748 0.437212 0.562491
vn -0.388177 0.437222 0.811268
vn 0.002228 0.437211 0.899356
vn 0.392236 0.437221 0.809314
vn 0.704536 0.437218 0.558990
vn 0.566836 0.684886 0.457852
vn 0.564551 0.684889 -0.460662
vn 0.701748 -0.437212 -0.562491
vn 0.388177 -0.437222 -0.811268
vn -0.002228 -0.437211 -0.899356
vn -0.392236 -0.437221 -0.809314
vn -0.704536 -0.437218 -0.558990
vn -0.877307 -0.437219 -0.197918
vn -0.876303 -0.437221 0.202313
vn -0.701748 -0.437212 0.562491
vn -0.388177 -0.437222 0.811268
vn 0.002228 -0.437211 0.899356
vn 0.392236 -0.437221 0.809314
vn 0.704536 -0.437218 0.558990
vn 0.566836 -0.684886 0.457852
vn 0.575598 0.577033 -0.579413
vn 0.579098 0.577664 0.575283
vn 0.579098 -0.577664 0.575283
vn 0.575598 -0.577033 -0.579413
vn 0.564551 -0.684889 -0.460662
vn 0.172007 -0.975398 -0.137886
vn 0.095159 -0.975396 -0.198864
vn -0.000549 -0.975394 -0.220471
vn -0.096136 -0.975400 -0.198376
vn -0.172708 -0.975394 -0.137031
vn -0.215040 -0.975401 -0.048495
vn -0.214795 -0.975399 0.049594
vn -0.172007 -0.975398 0.137886
vn -0.095159 -0.975396 0.198864
vn 0.000549 -0.975394 0.220471
vn 0.096136 -0.975400 0.198376
vn 0.172708 -0.975394 0.137031
vn 0.215040 -0.975401 0.048495
vn 0.214795 -0.975399 -0.049594
vn -0.483638 -0.784741 0.387655
vn -0.267532 -0.784742 0.559113
vn 0.001526 -0.784744 0.619818
vn 0.270310 -0.784744 0.557772
vn 0.485561 -0.784741 0.385244
vn 0.604620 -0.784745 0.136422
vn 0.603944 -0.784740 -0.139412
vn 0.483638 -0.784741 -0.387655
vn 0.267532 -0.784742 -0.559113
vn -0.001526 -0.784744 -0.619818
vn -0.270310 -0.784744 -0.557772
vn -0.485561 -0.784741 -0.385244
vn -0.604620 -0.784745 -0.136422
vn -0.603944 -0.784740 0.139412
vn -0.020690 0.992061 0.124046
vn -0.011168 0.940616 -0.339289
vn 0.012071 -0.864779 0.502008
vn 0.018467 -0.963033 -0.268749
vn 0.119451 0.712434 -0.691498
vn -0.300740 0.904539 0.302266
vn 0.302235 0.904509 0.300862
vn 0.119451 0.712434 -0.691498
vn 0.119451 -0.712434 -0.691498
vn 0.119451 -0.712434 -0.691498
vn -0.300740 -0.904539 0.302266
vn 0.302235 -0.904509 0.300862
vn -0.575894 0.577359 0.578794
vn -0.575894 -0.577359 0.578794
vn 0.578712 -0.577278 0.576057
vn 0.578712 0.577278 0.576057
vn -0.001740 0.707106 -0.707106
vn -0.300740 0.904539 0.302266
vn 0.302266 0.904539 0.300740
vn -0.001740 0.707106 -0.707106
vn -0.001740 -0.707106 -0.707106
vn -0.001740 -0.707106 -0.707106
vn -0.300740 -0.904539 0.302266
vn 0.302266 -0.904539 0.300740
vn -0.575894 0.577359 0.578794
vn -0.575894 -0.577359 0.578794
vn 0.578794 -0.577359 0.575894
vn 0.578794 0.577359 0.575894
vn 0.856518 0.504504 0.108871
vn 0.861635 0.481362 -0.160857
vn -0.860001 -0.485217 -0.157994
vn -0.842382 -0.491336 0.221317
s 1
g pTorus1
usemtl pTorus1SG
f 2/28/1 1/24/2 15/25/3 16/29/4
f 3/193/5 2/194/1 16/195/4 17/196/6
f 4/199/7 3/193/5 17/196/6 18/200/8
f 5/202/9 4/199/7 18/200/8 19/203/10
f 6/2/11 5/7/9 19/8/10 20/3/12
f 7/1/13 6/2/11 20/3/12 21/4/14
f 8/9/15 7/1/13 21/4/14 22/10/16
f 9/13/17 8/9/15 22/10/16 23/14/18
f 10/205/19 9/206/17 23/207/18 24/208/20
f 11/211/21 10/205/19 24/208/20 25/212/22
f 12/214/23 11/211/21 25/212/22 26/215/24
f 13/17/25 12/22/23 26/23/24 27/18/26
f 14/16/27 13/17/25 27/18/26 28/19/28
f 1/24/2 14/16/27 28/19/28 15/25/3
f 16/81/4 15/82/3 29/83/29 30/84/30
f 17/89/6 16/81/4 30/84/30 31/90/31
f 18/94/8 17/89/6 31/90/31 32/95/32
f 19/99/10 18/94/8 32/95/32 33/100/33
f 20/106/12 19/99/10 33/100/33 34/107/34
f 21/112/14 20/106/12 34/107/34 35/113/35
f 22/117/16 21/112/14 35/113/35 36/118/36
f 23/114/18 22/117/16 36/118/36 37/115/37
f 24/108/20 23/114/18 37/115/37 38/109/38
f 25/101/22 24/108/20 38/109/38 39/102/39
f 26/96/24 25/101/22 39/102/39 40/97/40
f 27/91/26 26/96/24 40/97/40 41/92/41
f 28/85/28 27/91/26 41/92/41 42/86/42
f 15/82/3 28/85/28 42/86/42 29/83/29
f 30/84/30 29/83/29 43/87/43 44/88/44
f 31/90/31 30/84/30 44/88/44 45/93/45
f 32/95/32 31/90/31 45/93/45 46/98/46
f 33/100/33 32/95/32 46/98/46 47/105/47
f 34/107/34 33/100/33 47/105/47 48/111/48
f 35/35/35 34/36/34 48/32/48 49/31/49
f 36/43/36 35/35/35 49/31/49 50/41/50
f 37/115/37 36/118/36 50/120/50 51/119/51
f 38/109/38 37/115/37 51/119/51 52/116/52
f 39/102/39 38/109/38 52/116/52 53/110/53
f 40/97/40 39/102/39 53/110/53 54/103/54
f 41/92/41 40/97/40 54/103/54 55/104/55
f 42/56/42 41/61/41 55/62/55 56/52/56
f 29/55/29 42/56/42 56/52/56 43/51/43
f 44/59/44 43/51/43 57/54/57 58/60/58
f 45/217/45 44/218/44 58/219/58 59/220/59
f 46/221/46 45/217/45 59/220/59 60/222/60
f 47/223/47 46/221/46 60/222/60 61/224/61
f 48/32/48 47/37/47 61/38/61 62/33/62
f 49/31/49 48/32/48 62/33/62 63/34/63
f 50/41/50 49/31/49 63/34/63 64/42/64
f 51/45/51 50/41/50 64/42/64 65/46/65
f 52/225/52 51/226/51 65/227/65 66/228/66
f 53/229/53 52/225/52 66/228/66 67/230/67
f 54/231/54 53/229/53 67/230/67 68/232/68
f 55/233/55 54/231/54 68/232/68 69/234/69
f 124/47/70 123/48/71 125/49/72 126/50/73
f 43/51/43 56/52/56 70/53/74 57/54/57
f 58/121/58 57/122/57 71/123/75 72/124/76
f 59/127/59 58/121/58 72/124/76 73/128/77
f 60/132/60 59/127/59 73/128/77 74/133/78
f 61/137/61 60/132/60 74/133/78 75/138/79
f 62/142/62 61/137/61 75/138/79 76/143/80
f 63/34/63 62/33/62 76/39/80 77/40/81
f 64/42/64 63/34/63 77/40/81 78/44/82
f 65/159/65 64/160/64 78/157/82 79/155/83
f 66/154/66 65/159/65 79/155/83 80/150/84
f 67/149/67 66/154/66 80/150/84 81/146/85
f 68/145/68 67/149/67 81/146/85 82/139/86
f 69/144/69 68/145/68 82/139/86 83/134/87
f 70/53/74 69/63/69 83/64/87 84/57/88
f 57/54/57 70/53/74 84/57/88 71/58/75
f 72/124/76 71/123/75 85/125/89 86/126/90
f 73/128/77 72/124/76 86/126/90 87/131/91
f 74/133/78 73/128/77 87/131/91 88/136/92
f 75/138/79 74/133/78 88/136/92 89/141/93
f 76/143/80 75/138/79 89/141/93 90/148/94
f 77/152/81 76/143/80 90/148/94 91/153/95
f 78/157/82 77/152/81 91/153/95 92/158/96
f 79/155/83 78/157/82 92/158/96 93/156/97
f 80/150/84 79/155/83 93/156/97 94/151/98
f 81/146/85 80/150/84 94/151/98 95/147/99
f 82/139/86 81/146/85 95/147/99 96/140/100
f 83/134/87 82/139/86 96/140/100 97/135/101
f 84/129/88 83/134/87 97/135/101 98/130/102
f 71/123/75 84/129/88 98/130/102 85/125/89
f 86/30/90 85/27/89 1/24/2 2/28/1
f 87/197/91 86/198/90 2/194/1 3/193/5
f 88/201/92 87/197/91 3/193/5 4/199/7
f 89/204/93 88/201/92 4/199/7 5/202/9
f 90/6/94 89/11/93 5/7/9 6/2/11
f 91/5/95 90/6/94 6/2/11 7/1/13
f 92/12/96 91/5/95 7/1/13 8/9/15
f 93/15/97 92/12/96 8/9/15 9/13/17
f 94/209/98 93/210/97 9/206/17 10/205/19
f 95/213/99 94/209/98 10/205/19 11/211/21
f 96/216/100 95/213/99 11/211/21 12/214/23
f 97/21/101 96/26/100 12/22/23 13/17/25
f 98/20/102 97/21/101 13/17/25 14/16/27
f 85/27/89 98/20/102 14/16/27 1/24/2
f 56/161/56 55/162/55 127/265/103 128/267/104
f 55/233/55 69/234/69 130/271/105 127/266/103
f 69/177/69 70/178/74 129/269/106 130/272/105
f 70/237/74 56/238/56 128/268/104 129/270/106
f 104/170/107 103/169/108 99/171/109 100/172/110
f 105/244/111 104/243/107 100/245/110 102/246/112
f 106/184/113 105/183/111 102/187/112 101/188/114
f 116/249/115 115/250/116 117/251/117 118/252/118
f 108/164/119 107/163/120 111/165/121 112/166/122
f 109/240/123 108/239/119 112/241/122 113/242/124
f 110/180/125 109/179/123 113/181/124 114/182/126
f 120/253/127 119/254/128 121/255/129 122/256/130
f 112/166/122 111/165/121 103/169/108 104/170/107
f 113/242/124 112/241/122 104/243/107 105/244/111
f 114/182/126 113/181/124 105/183/111 106/184/113
f 111/257/121 114/258/126 106/259/113 103/260/108
f 103/65/108 106/66/113 115/67/116 116/68/115
f 106/184/113 101/188/114 117/191/117 115/192/116
f 101/69/114 99/70/109 118/71/118 117/72/117
f 99/171/109 103/169/108 116/173/115 118/174/118
f 107/73/120 110/74/125 119/75/128 120/76/127
f 110/180/125 114/182/126 121/185/129 119/186/128
f 114/77/126 111/78/121 122/79/130 121/80/129
f 111/165/121 107/163/120 120/167/127 122/168/130
f 100/172/110 99/171/109 123/175/71 124/176/70
f 99/261/109 101/262/114 125/263/72 123/264/71
f 101/188/114 102/187/112 126/189/73 125/190/72
f 102/246/112 100/245/110 124/247/70 126/248/73
f 128/267/104 127/265/103 131/273/131 132/275/132
f 129/270/106 128/268/104 132/276/132 133/278/133
f 130/272/105 129/269/106 133/277/133 134/280/134
f 127/266/103 130/271/105 134/279/134 131/274/131
f 132/275/132 131/273/131 107/163/120 108/164/119
f 133/278/133 132/276/132 108/239/119 109/240/123
f 134/280/134 133/277/133 109/179/123 110/180/125
f 131/274/131 134/279/134 110/235/125 107/236/120
