# 3ds Max Wavefront OBJ Exporter v0.97b - (c)2007 guruware
# File Created: 07.02.2017 21:21:55

mtllib Stool.mtl

#
# object Box001
#

v  -20.0000 -37.3845 20.0000
v  -20.0000 -37.3845 6.6667
v  -10.0000 -37.3845 6.6667
v  -10.0000 -37.3845 20.0000
v  -10.0000 0.0000 20.0000
v  -10.0000 0.0000 6.6667
v  0.0000 0.0000 6.6667
v  0.0000 0.0000 20.0000
v  10.0000 0.0000 6.6667
v  10.0000 0.0000 20.0000
v  10.0000 -37.3845 20.0000
v  10.0000 -37.3845 6.6667
v  20.0000 -37.3845 6.6667
v  20.0000 -37.3845 20.0000
v  -20.0000 0.0000 6.6667
v  -20.0000 0.0000 -6.6667
v  -10.0000 0.0000 -6.6667
v  0.0000 0.0000 -6.6667
v  10.0000 0.0000 -6.6667
v  20.0000 0.0000 -6.6667
v  20.0000 0.0000 6.6667
v  -20.0000 -37.3845 -6.6667
v  -20.0000 -37.3845 -20.0000
v  -10.0000 -37.3845 -20.0000
v  -10.0000 -37.3845 -6.6667
v  -10.0000 0.0000 -20.0000
v  0.0000 0.0000 -20.0000
v  10.0000 0.0000 -20.0000
v  10.0000 -37.3845 -6.6667
v  10.0000 -37.3845 -20.0000
v  20.0000 -37.3845 -20.0000
v  20.0000 -37.3845 -6.6667
v  -20.0000 10.0000 20.0000
v  -10.0000 10.0000 20.0000
v  -10.0000 10.0000 6.6667
v  -20.0000 10.0000 6.6667
v  0.0000 10.0000 20.0000
v  0.0000 10.0000 6.6667
v  10.0000 10.0000 20.0000
v  10.0000 10.0000 6.6667
v  20.0000 10.0000 20.0000
v  20.0000 10.0000 6.6667
v  -10.0000 10.0000 -6.6667
v  -20.0000 10.0000 -6.6667
v  0.0000 10.0000 -6.6667
v  10.0000 10.0000 -6.6667
v  20.0000 10.0000 -6.6667
v  -10.0000 10.0000 -20.0000
v  -20.0000 10.0000 -20.0000
v  0.0000 10.0000 -20.0000
v  10.0000 10.0000 -20.0000
v  20.0000 10.0000 -20.0000
v  -20.0000 0.0000 20.0000
v  20.0000 0.0000 20.0000
v  20.0000 0.0000 -20.0000
v  -20.0000 0.0000 -20.0000
# 56 vertices

vn 0.0000 -1.0000 -0.0000
vn 0.0000 1.0000 -0.0000
vn 0.0000 0.0000 1.0000
vn 1.0000 0.0000 -0.0000
vn 0.0000 0.0000 -1.0000
vn -1.0000 0.0000 -0.0000
# 6 vertex normals

vt 1.0000 0.0000 0.0000
vt 1.0000 0.3333 0.0000
vt 0.7500 0.3333 0.0000
vt 0.7500 0.0000 0.0000
vt 0.5000 0.3333 0.0000
vt 0.5000 0.0000 0.0000
vt 0.2500 0.3333 0.0000
vt 0.2500 0.0000 0.0000
vt 0.0000 0.3333 0.0000
vt 0.0000 0.0000 0.0000
vt 1.0000 0.6667 0.0000
vt 0.7500 0.6667 0.0000
vt 0.5000 0.6667 0.0000
vt 0.2500 0.6667 0.0000
vt 0.0000 0.6667 0.0000
vt 1.0000 1.0000 0.0000
vt 0.7500 1.0000 0.0000
vt 0.5000 1.0000 0.0000
vt 0.2500 1.0000 0.0000
vt 0.0000 1.0000 0.0000
vt 0.3333 0.0000 0.0000
vt 0.3333 1.0000 0.0000
vt 0.6667 0.0000 0.0000
vt 0.6667 1.0000 0.0000
# 24 texture coords

g Box001
usemtl wire_225143087
s 2
f 1/1/1 2/2/1 3/3/1 4/4/1 
f 5/4/1 6/3/1 7/5/1 8/6/1 
f 8/6/1 7/5/1 9/7/1 10/8/1 
f 11/8/1 12/7/1 13/9/1 14/10/1 
f 15/2/1 16/11/1 17/12/1 6/3/1 
f 6/3/1 17/12/1 18/13/1 7/5/1 
f 7/5/1 18/13/1 19/14/1 9/7/1 
f 9/7/1 19/14/1 20/15/1 21/9/1 
f 22/11/1 23/16/1 24/17/1 25/12/1 
f 17/12/1 26/17/1 27/18/1 18/13/1 
f 18/13/1 27/18/1 28/19/1 19/14/1 
f 29/14/1 30/19/1 31/20/1 32/15/1 
s 4
f 33/10/2 34/8/2 35/7/2 36/9/2 
f 34/8/2 37/6/2 38/5/2 35/7/2 
f 37/6/2 39/4/2 40/3/2 38/5/2 
f 39/4/2 41/1/2 42/2/2 40/3/2 
f 36/9/2 35/7/2 43/14/2 44/15/2 
f 35/7/2 38/5/2 45/13/2 43/14/2 
f 38/5/2 40/3/2 46/12/2 45/13/2 
f 40/3/2 42/2/2 47/11/2 46/12/2 
f 44/15/2 43/14/2 48/19/2 49/20/2 
f 43/14/2 45/13/2 50/18/2 48/19/2 
f 45/13/2 46/12/2 51/17/2 50/18/2 
f 46/12/2 47/11/2 52/16/2 51/17/2 
s 8
f 53/10/3 5/8/3 34/19/3 33/20/3 
f 5/8/3 8/6/3 37/18/3 34/19/3 
f 8/6/3 10/4/3 39/17/3 37/18/3 
f 10/4/3 54/1/3 41/16/3 39/17/3 
s 16
f 54/10/4 21/21/4 42/22/4 41/20/4 
f 21/21/4 20/23/4 47/24/4 42/22/4 
f 20/23/4 55/1/4 52/16/4 47/24/4 
s 32
f 55/10/5 28/8/5 51/19/5 52/20/5 
f 28/8/5 27/6/5 50/18/5 51/19/5 
f 27/6/5 26/4/5 48/17/5 50/18/5 
f 26/4/5 56/1/5 49/16/5 48/17/5 
s 64
f 56/10/6 16/21/6 44/22/6 49/20/6 
f 16/21/6 15/23/6 36/24/6 44/22/6 
f 15/23/6 53/1/6 33/16/6 36/24/6 
s off
f 53/1/6 15/2/6 2/2/6 1/1/6 
f 15/2/5 6/3/5 3/3/5 2/2/5 
f 6/3/4 5/4/4 4/4/4 3/3/4 
f 5/4/3 53/1/3 1/1/3 4/4/3 
f 10/8/6 9/7/6 12/7/6 11/8/6 
f 9/7/5 21/9/5 13/9/5 12/7/5 
f 21/9/4 54/10/4 14/10/4 13/9/4 
f 54/10/3 10/8/3 11/8/3 14/10/3 
f 17/12/3 16/11/3 22/11/3 25/12/3 
f 16/11/6 56/16/6 23/16/6 22/11/6 
f 56/16/5 26/17/5 24/17/5 23/16/5 
f 26/17/4 17/12/4 25/12/4 24/17/4 
f 20/15/3 19/14/3 29/14/3 32/15/3 
f 19/14/6 28/19/6 30/19/6 29/14/6 
f 28/19/5 55/20/5 31/20/5 30/19/5 
f 55/20/4 20/15/4 32/15/4 31/20/4 
# 54 polygons

