# This file uses centimeters as units for non-parametric coordinates.

mtllib Door_Handle_Textured.mtl
g default
v 0.741474 -0.500568 -0.670981
v 0.510758 -0.500568 -0.859725
v 0.234658 -0.500568 -0.972078
v -0.062292 -0.500568 -0.998058
v -0.353708 -0.500568 -0.935356
v -0.613694 -0.500568 -0.789544
v -0.819152 -0.500568 -0.573577
v -0.951824 -0.500568 -0.306645
v -0.999922 -0.500568 -0.012467
v -0.959173 -0.500568 0.282820
v -0.833197 -0.500568 0.552976
v -0.633188 -0.500568 0.773998
v -0.376917 -0.500568 0.926247
v -0.087156 -0.500568 0.996195
v 0.210350 -0.500568 0.977626
v 0.489165 -0.500568 0.872191
v 0.724516 -0.500568 0.689258
v 0.895490 -0.500568 0.445082
v 1.031340 -0.500568 0.252960
v 0.991321 -0.500568 -0.170336
v 0.906308 -0.500568 -0.422618
v 0.741474 0.000000 -0.670981
v 0.510758 0.000000 -0.859725
v 0.234658 0.000000 -0.972078
v -0.062292 0.000000 -0.998058
v -0.353708 0.000000 -0.935356
v -0.613694 0.000000 -0.789544
v -0.819152 0.000000 -0.573577
v -0.951824 0.000000 -0.306645
v -0.999922 0.000000 -0.012467
v -0.959173 0.000000 0.282820
v -0.833197 0.000000 0.552976
v -0.633188 0.000000 0.773998
v -0.376917 0.000000 0.926247
v -0.087156 0.000000 0.996195
v 0.210350 0.000000 0.977626
v 0.489165 0.000000 0.872191
v 0.724516 0.000000 0.689258
v 0.895490 0.000000 0.445082
v 1.031340 0.000000 0.252960
v 0.991321 0.000000 -0.170336
v 0.906308 0.000000 -0.422618
v 0.741474 0.500568 -0.670981
v 0.510758 0.500568 -0.859725
v 0.234658 0.500568 -0.972078
v -0.062292 0.500568 -0.998058
v -0.353708 0.500568 -0.935356
v -0.613694 0.500568 -0.789544
v -0.819152 0.500568 -0.573577
v -0.951824 0.500568 -0.306645
v -0.999922 0.500568 -0.012467
v -0.959173 0.500568 0.282820
v -0.833197 0.500568 0.552976
v -0.633188 0.500568 0.773998
v -0.376917 0.500568 0.926247
v -0.087156 0.500568 0.996195
v 0.210350 0.500568 0.977626
v 0.489165 0.500568 0.872191
v 0.724516 0.500568 0.689258
v 0.895490 0.500568 0.445082
v 1.031340 0.500568 0.252960
v 0.991321 0.500568 -0.170336
v 0.906308 0.500568 -0.422618
v 0.000000 -0.500568 0.000000
v 0.000000 0.500568 0.000000
v 6.122741 -0.500568 -0.161826
v 6.103438 -0.500568 -0.459285
v 6.103438 0.000000 -0.459285
v 6.122741 0.000000 -0.161826
v 6.103438 0.500568 -0.459285
v 6.122741 0.500568 -0.161826
v 4.905458 0.500568 -0.366532
v 4.905458 0.000000 -0.366532
v 4.905458 -0.500568 -0.366532
v 4.924760 -0.500568 -0.069073
v 4.924760 0.000000 -0.069073
v 4.924760 0.500568 -0.069073
v 3.238522 0.500568 -0.237470
v 3.238522 0.000000 -0.237470
v 3.238522 -0.500568 -0.237470
v 3.257824 -0.500568 0.059989
v 3.257824 0.000000 0.059989
v 3.257824 0.500568 0.059989
v 2.165437 0.500568 -0.154388
v 2.165437 0.000000 -0.154388
v 2.165437 -0.500568 -0.154388
v 2.184740 -0.500568 0.143071
v 2.184740 0.000000 0.143071
v 2.184740 0.500568 0.143071
v 5.730192 0.500568 -0.497690
v 5.730192 0.000000 -0.497690
v 5.730192 -0.500568 -0.497690
v 5.945259 -0.500568 -0.148084
v 5.945259 0.000000 -0.148084
v 5.945259 0.500568 -0.148084
v 5.864692 0.500568 -0.990564
v 5.864692 0.000000 -0.990564
v 6.042175 0.500568 -1.004305
v 6.042175 0.000000 -1.004305
v 5.864692 -0.500568 -0.990564
v 6.042175 -0.500568 -1.004305
vt 0.649308 0.110195
vt 0.629100 0.068231
vt 0.597420 0.034089
vt 0.557085 0.010801
vt 0.511677 0.000437
vt 0.465231 0.003918
vt 0.421875 0.020934
vt 0.385461 0.049973
vt 0.359224 0.088456
vt 0.345495 0.132962
vt 0.345495 0.179538
vt 0.359224 0.224044
vt 0.385461 0.262527
vt 0.421875 0.291566
vt 0.465231 0.308582
vt 0.511677 0.312063
vt 0.557085 0.301699
vt 0.597420 0.278411
vt 0.629100 0.244269
vt 0.649308 0.202305
vt 0.656250 0.156250
vt 0.375000 0.312500
vt 0.386905 0.312500
vt 0.398810 0.312500
vt 0.410714 0.312500
vt 0.422619 0.312500
vt 0.434524 0.312500
vt 0.446429 0.312500
vt 0.458333 0.312500
vt 0.470238 0.312500
vt 0.482143 0.312500
vt 0.494048 0.312500
vt 0.505953 0.312500
vt 0.517857 0.312500
vt 0.529762 0.312500
vt 0.541667 0.312500
vt 0.553572 0.312500
vt 0.565476 0.312500
vt 0.577381 0.312500
vt 0.589286 0.312500
vt 0.601191 0.312500
vt 0.613096 0.312500
vt 0.625000 0.312500
vt 0.375000 0.500470
vt 0.386905 0.500470
vt 0.398810 0.500470
vt 0.410714 0.500470
vt 0.422619 0.500470
vt 0.434524 0.500470
vt 0.446429 0.500470
vt 0.458333 0.500470
vt 0.470238 0.500470
vt 0.482143 0.500470
vt 0.494048 0.500470
vt 0.505953 0.500470
vt 0.517857 0.500470
vt 0.529762 0.500470
vt 0.541667 0.500470
vt 0.553572 0.500470
vt 0.565476 0.500470
vt 0.577381 0.500470
vt 0.589286 0.500470
vt 0.601191 0.500470
vt 0.613096 0.500470
vt 0.625000 0.500470
vt 0.375000 0.688440
vt 0.386905 0.688440
vt 0.398810 0.688440
vt 0.410714 0.688440
vt 0.422619 0.688440
vt 0.434524 0.688440
vt 0.446429 0.688440
vt 0.458333 0.688440
vt 0.470238 0.688440
vt 0.482143 0.688440
vt 0.494048 0.688440
vt 0.505953 0.688440
vt 0.517857 0.688440
vt 0.529762 0.688440
vt 0.541667 0.688440
vt 0.553572 0.688440
vt 0.565476 0.688440
vt 0.577381 0.688440
vt 0.589286 0.688440
vt 0.601191 0.688440
vt 0.613096 0.688440
vt 0.625000 0.688440
vt 0.649308 0.797695
vt 0.629100 0.755731
vt 0.597420 0.721589
vt 0.557085 0.698301
vt 0.511677 0.687937
vt 0.465231 0.691418
vt 0.421875 0.708434
vt 0.385461 0.737473
vt 0.359224 0.775956
vt 0.345495 0.820462
vt 0.345495 0.867038
vt 0.359224 0.911544
vt 0.385461 0.950027
vt 0.421875 0.979066
vt 0.465231 0.996082
vt 0.511677 0.999563
vt 0.557085 0.989199
vt 0.597420 0.965911
vt 0.629100 0.931769
vt 0.649308 0.889805
vt 0.656250 0.843750
vt 0.500000 0.150000
vt 0.500000 0.837500
vt 0.589286 0.312500
vt 0.601191 0.312500
vt 0.601191 0.500470
vt 0.589286 0.500470
vt 0.601191 0.688440
vt 0.589286 0.688440
vt 0.601191 0.688440
vt 0.601191 0.500470
vt 0.601191 0.312500
vt 0.589286 0.312500
vt 0.589286 0.500470
vt 0.589286 0.688440
vt 0.601191 0.688440
vt 0.601191 0.500470
vt 0.601191 0.312500
vt 0.589286 0.312500
vt 0.589286 0.500470
vt 0.589286 0.688440
vt 0.601191 0.688440
vt 0.601191 0.500470
vt 0.601191 0.312500
vt 0.589286 0.312500
vt 0.589286 0.500470
vt 0.589286 0.688440
vt 0.601191 0.688440
vt 0.601191 0.500470
vt 0.601191 0.312500
vt 0.589286 0.312500
vt 0.589286 0.500470
vt 0.589286 0.688440
vt 0.601191 0.500470
vt 0.601191 0.688440
vt 0.601191 0.688440
vt 0.601191 0.500470
vt 0.601191 0.312500
vt 0.601191 0.312500
vn 0.586335 -0.558532 -0.586732
vn 0.387346 -0.558527 -0.733492
vn 0.510766 0.000000 -0.859720
vn 0.741463 0.000000 -0.670994
vn 0.153939 -0.558531 -0.815075
vn 0.234657 0.000000 -0.972078
vn -0.093145 -0.558534 -0.824235
vn -0.062289 0.000000 -0.998058
vn -0.331955 -0.558528 -0.760166
vn -0.353691 0.000000 -0.935362
vn -0.541262 -0.558536 -0.628548
vn -0.613691 0.000000 -0.789546
vn -0.702495 -0.558535 -0.441066
vn -0.819156 0.000000 -0.573571
vn -0.801291 -0.558538 -0.214400
vn -0.951830 0.000000 -0.306626
vn -0.828896 -0.558528 0.031282
vn -0.999923 0.000000 -0.012452
vn -0.782847 -0.558531 0.274215
vn -0.959174 0.000000 0.282817
vn -0.667237 -0.558528 0.492790
vn -0.833199 0.000000 0.552974
vn -0.492333 -0.558529 0.667573
vn -0.633185 0.000000 0.774001
vn -0.273695 -0.558530 0.783029
vn -0.376909 0.000000 0.926250
vn -0.030732 -0.558523 0.828919
vn -0.087131 0.000000 0.996197
vn 0.214945 -0.558527 0.801153
vn 0.210340 0.000000 0.977628
vn 0.441554 -0.558535 0.702189
vn 0.489155 0.000000 0.872197
vn 0.628904 -0.558528 0.540857
vn 0.724527 0.000000 0.689247
vn 0.680103 -0.554697 0.479344
vn 0.817823 0.000000 0.575470
vn 0.207407 -0.910412 0.357957
vn 0.501339 0.000000 0.865251
vn 0.712806 -0.331499 0.618074
vn 0.445364 -0.894481 -0.039431
vn 0.996100 0.000000 -0.088230
vn 0.755513 0.000000 0.655134
vn 0.433591 -0.676649 -0.595101
vn 0.728806 -0.557622 -0.397364
vn 0.898059 0.000000 -0.439874
vn 0.588877 0.000000 -0.808222
vn 0.458912 0.558525 -0.690977
vn 0.642193 0.558539 -0.524998
vn 0.234845 0.558532 -0.795544
vn -0.010041 0.558533 -0.829422
vn -0.254070 0.558528 -0.789617
vn -0.475549 0.558530 -0.679630
vn -0.654733 0.558536 -0.509277
vn -0.775765 0.558530 -0.293655
vn -0.827858 0.558528 -0.051943
vn -0.806384 0.558536 0.194378
vn -0.713267 0.558534 0.423425
vn -0.556770 0.558540 0.614849
vn -0.350788 0.558532 0.751658
vn -0.113653 0.558528 0.821663
vn 0.133554 0.558538 0.818657
vn 0.368942 0.558526 0.742920
vn 0.571530 0.558529 0.601164
vn 0.680851 0.554685 0.478296
vn 0.386679 0.636479 0.667364
vn 0.890885 0.447320 -0.078923
vn 0.437984 0.814807 0.379814
vn 0.760717 0.557613 -0.332230
vn 0.222484 0.925887 -0.305343
vn 0.000000 -1.000000 0.000000
vn 0.000000 1.000000 0.000000
vn -0.033174 -0.707434 -0.706000
vn 0.062900 -0.707124 0.704286
vn -0.031831 0.000000 -0.999493
vn 0.086003 0.000000 0.996295
vn -0.011780 0.707439 -0.706676
vn 0.058718 0.707122 0.704650
vn -0.117192 0.000000 -0.993109
vn -0.073428 0.707361 -0.703028
vn -0.227309 0.888817 -0.397912
vn -0.667638 0.000000 -0.744486
vn -0.092258 -0.707364 -0.700803
vn -0.438440 -0.840561 -0.318163
vn 0.054569 -0.707105 0.705000
vn 0.054569 -0.707105 0.705000
vn 0.077182 0.000000 0.997017
vn 0.077182 0.000000 0.997017
vn 0.054569 0.707105 0.705000
vn 0.054569 0.707105 0.705000
vn -0.077182 0.000000 -0.997017
vn -0.054569 0.707105 -0.705000
vn -0.054569 -0.707105 -0.705000
vn 0.054569 -0.707105 0.705000
vn 0.077182 0.000000 0.997017
vn 0.054569 0.707105 0.705000
vn -0.637172 0.000000 -0.770722
vn -0.740276 0.368917 -0.562043
vn 0.277633 0.661596 -0.696571
vn 0.637154 0.000000 -0.770737
vn -0.347887 -0.621735 -0.701726
vn 0.771010 -0.403618 -0.492582
s 1
g pCylinder1
usemtl pCylinder1SG
f 1/22/1 2/23/2 23/45/3 22/44/4
f 2/23/2 3/24/5 24/46/6 23/45/3
f 3/24/5 4/25/7 25/47/8 24/46/6
f 4/25/7 5/26/9 26/48/10 25/47/8
f 5/26/9 6/27/11 27/49/12 26/48/10
f 6/27/11 7/28/13 28/50/14 27/49/12
f 7/28/13 8/29/15 29/51/16 28/50/14
f 8/29/15 9/30/17 30/52/18 29/51/16
f 9/30/17 10/31/19 31/53/20 30/52/18
f 10/31/19 11/32/21 32/54/22 31/53/20
f 11/32/21 12/33/23 33/55/24 32/54/22
f 12/33/23 13/34/25 34/56/26 33/55/24
f 13/34/25 14/35/27 35/57/28 34/56/26
f 14/35/27 15/36/29 36/58/30 35/57/28
f 15/36/29 16/37/31 37/59/32 36/58/30
f 16/37/31 17/38/33 38/60/34 37/59/32
f 17/38/33 18/39/35 39/61/36 38/60/34
f 18/39/35 19/40/37 40/62/38 39/61/36
f 66/111/39 67/112/40 68/113/41 69/114/42
f 20/41/43 21/42/44 42/64/45 41/63/46
f 21/42/44 1/43/1 22/65/4 42/64/45
f 22/44/4 23/45/3 44/67/47 43/66/48
f 23/45/3 24/46/6 45/68/49 44/67/47
f 24/46/6 25/47/8 46/69/50 45/68/49
f 25/47/8 26/48/10 47/70/51 46/69/50
f 26/48/10 27/49/12 48/71/52 47/70/51
f 27/49/12 28/50/14 49/72/53 48/71/52
f 28/50/14 29/51/16 50/73/54 49/72/53
f 29/51/16 30/52/18 51/74/55 50/73/54
f 30/52/18 31/53/20 52/75/56 51/74/55
f 31/53/20 32/54/22 53/76/57 52/75/56
f 32/54/22 33/55/24 54/77/58 53/76/57
f 33/55/24 34/56/26 55/78/59 54/77/58
f 34/56/26 35/57/28 56/79/60 55/78/59
f 35/57/28 36/58/30 57/80/61 56/79/60
f 36/58/30 37/59/32 58/81/62 57/80/61
f 37/59/32 38/60/34 59/82/63 58/81/62
f 38/60/34 39/61/36 60/83/64 59/82/63
f 39/61/36 40/62/38 61/84/65 60/83/64
f 69/114/42 68/113/41 70/115/66 71/116/67
f 41/63/46 42/64/45 63/86/68 62/85/69
f 42/64/45 22/65/4 43/87/48 63/86/68
f 2/2/2 1/1/1 64/109/70
f 3/3/5 2/2/2 64/109/70
f 4/4/7 3/3/5 64/109/70
f 5/5/9 4/4/7 64/109/70
f 6/6/11 5/5/9 64/109/70
f 7/7/13 6/6/11 64/109/70
f 8/8/15 7/7/13 64/109/70
f 9/9/17 8/8/15 64/109/70
f 10/10/19 9/9/17 64/109/70
f 11/11/21 10/10/19 64/109/70
f 12/12/23 11/11/21 64/109/70
f 13/13/25 12/12/23 64/109/70
f 14/14/27 13/13/25 64/109/70
f 15/15/29 14/14/27 64/109/70
f 16/16/31 15/15/29 64/109/70
f 17/17/33 16/16/31 64/109/70
f 18/18/35 17/17/33 64/109/70
f 19/19/37 18/18/35 64/109/70
f 20/20/43 19/19/37 64/109/70
f 21/21/44 20/20/43 64/109/70
f 1/1/1 21/21/44 64/109/70
f 43/107/48 44/106/47 65/110/71
f 44/106/47 45/105/49 65/110/71
f 45/105/49 46/104/50 65/110/71
f 46/104/50 47/103/51 65/110/71
f 47/103/51 48/102/52 65/110/71
f 48/102/52 49/101/53 65/110/71
f 49/101/53 50/100/54 65/110/71
f 50/100/54 51/99/55 65/110/71
f 51/99/55 52/98/56 65/110/71
f 52/98/56 53/97/57 65/110/71
f 53/97/57 54/96/58 65/110/71
f 54/96/58 55/95/59 65/110/71
f 55/95/59 56/94/60 65/110/71
f 56/94/60 57/93/61 65/110/71
f 57/93/61 58/92/62 65/110/71
f 58/92/62 59/91/63 65/110/71
f 59/91/63 60/90/64 65/110/71
f 60/90/64 61/89/65 65/110/71
f 61/89/65 62/88/69 65/110/71
f 62/88/69 63/108/68 65/110/71
f 63/108/68 43/107/48 65/110/71
f 19/40/37 20/41/43 86/131/72 87/132/73
f 20/41/43 41/63/46 85/130/74 86/131/72
f 40/62/38 19/40/37 87/132/73 88/133/75
f 41/63/46 62/85/69 84/129/76 85/130/74
f 62/85/69 61/84/65 89/134/77 84/129/76
f 61/84/65 40/62/38 88/133/75 89/134/77
f 73/118/78 72/117/79 90/135/80 91/136/81
f 74/119/82 73/118/78 91/136/81 92/137/83
f 75/120/84 74/119/82 92/137/83 93/138/85
f 76/121/86 75/120/84 93/138/85 94/139/87
f 77/122/88 76/121/86 94/139/87 95/140/89
f 72/117/79 77/122/88 95/140/89 90/135/80
f 79/124/90 78/123/91 72/117/79 73/118/78
f 80/125/92 79/124/90 73/118/78 74/119/82
f 81/126/93 80/125/92 74/119/82 75/120/84
f 82/127/94 81/126/93 75/120/84 76/121/86
f 83/128/95 82/127/94 76/121/86 77/122/88
f 78/123/91 83/128/95 77/122/88 72/117/79
f 85/130/74 84/129/76 78/123/91 79/124/90
f 86/131/72 85/130/74 79/124/90 80/125/92
f 87/132/73 86/131/72 80/125/92 81/126/93
f 88/133/75 87/132/73 81/126/93 82/127/94
f 89/134/77 88/133/75 82/127/94 83/128/95
f 84/129/76 89/134/77 83/128/95 78/123/91
f 97/141/96 96/142/97 98/143/98 99/144/99
f 100/145/100 97/141/96 99/144/99 101/146/101
f 93/138/85 92/137/83 67/112/40 66/111/39
f 94/139/87 93/138/85 66/111/39 69/114/42
f 95/140/89 94/139/87 69/114/42 71/116/67
f 90/135/80 95/140/89 71/116/67 70/115/66
f 91/136/81 90/135/80 96/142/97 97/141/96
f 90/135/80 70/115/66 98/143/98 96/142/97
f 70/115/66 68/113/41 99/144/99 98/143/98
f 92/137/83 91/136/81 97/141/96 100/145/100
f 68/113/41 67/112/40 101/146/101 99/144/99
f 67/112/40 92/137/83 100/145/100 101/146/101
